<svg width="300" height="356" viewBox="0 0 300 356" fill="none" xmlns="http://www.w3.org/2000/svg">
<path d="M102.584 75.52C46.5623 91.0534 13.7207 149.13 29.2303 205.238C44.74 261.346 102.728 294.238 158.749 278.704C214.771 263.171 247.613 205.094 232.103 148.986C216.593 92.8785 158.606 59.9865 102.584 75.52Z" fill="#1A1A1A"/>
<path d="M167.592 106.171L169.589 105.161C169.695 105.132 169.877 104.967 169.819 104.755L169.656 102.52C169.674 102.173 169.827 101.903 170.144 101.815C170.461 101.727 170.837 101.851 170.925 102.168L171.933 104.169C171.963 104.275 172.127 104.457 172.338 104.399L174.57 104.236C174.916 104.254 175.186 104.407 175.274 104.725C175.362 105.042 175.238 105.419 174.921 105.507L172.924 106.516C172.818 106.546 172.636 106.71 172.694 106.922L172.857 109.157C172.839 109.504 172.686 109.775 172.369 109.863C172.052 109.95 171.676 109.827 171.588 109.509L170.58 107.508C170.55 107.403 170.386 107.22 170.175 107.279L167.943 107.441C167.597 107.424 167.327 107.27 167.239 106.953C167.18 106.741 167.304 106.365 167.592 106.171Z" fill="#454850"/>
<path d="M71.6885 117.676L73.5928 116.713C73.6936 116.685 73.8673 116.528 73.8114 116.326L73.6565 114.195C73.6736 113.865 73.8194 113.607 74.1218 113.523C74.4242 113.439 74.7824 113.557 74.8661 113.86L75.8273 115.767C75.8552 115.868 76.0119 116.042 76.2134 115.986L78.341 115.831C78.6712 115.848 78.9286 115.994 79.0124 116.297C79.0961 116.6 78.9782 116.959 78.6758 117.042L76.7715 118.005C76.6707 118.033 76.4971 118.19 76.5529 118.392L76.7078 120.523C76.6907 120.853 76.5449 121.111 76.2425 121.195C75.9402 121.279 75.582 121.161 75.4983 120.858L74.537 118.951C74.5091 118.85 74.3525 118.676 74.1509 118.732L72.0234 118.887C71.6931 118.87 71.4357 118.724 71.352 118.421C71.2682 118.118 71.3861 117.759 71.6885 117.676Z" fill="#454850"/>
<path d="M139.906 138.56L141.444 137.782C141.525 137.76 141.666 137.633 141.621 137.47L141.496 135.749C141.509 135.482 141.627 135.274 141.871 135.206C142.115 135.138 142.405 135.233 142.472 135.478L143.249 137.018C143.271 137.1 143.398 137.24 143.561 137.195L145.279 137.07C145.546 137.084 145.754 137.202 145.821 137.446C145.889 137.691 145.794 137.981 145.549 138.048L144.011 138.826C143.93 138.849 143.79 138.975 143.835 139.138L143.96 140.859C143.946 141.127 143.828 141.335 143.584 141.402C143.34 141.47 143.051 141.375 142.983 141.13L142.207 139.59C142.184 139.508 142.058 139.368 141.895 139.413L140.176 139.538C139.91 139.524 139.702 139.407 139.634 139.162C139.508 139.021 139.684 138.709 139.906 138.56Z" fill="#454850"/>
<path d="M79.3124 247.047L82.0737 245.651C82.2198 245.61 82.4717 245.383 82.3908 245.09L82.1661 242C82.1909 241.521 82.4023 241.147 82.8407 241.025C83.2792 240.904 83.7986 241.075 83.92 241.514L85.3139 244.28C85.3544 244.426 85.5815 244.678 85.8738 244.597L88.9588 244.372C89.4377 244.397 89.811 244.609 89.9324 245.048C90.0537 245.487 89.8828 246.007 89.4443 246.129L86.6831 247.525C86.5369 247.565 86.285 247.793 86.366 248.086L86.5906 251.175C86.5659 251.655 86.3545 252.029 85.916 252.15C85.4775 252.272 84.9581 252.101 84.8367 251.662L83.4428 248.896C83.4024 248.75 83.1753 248.497 82.883 248.578L79.798 248.803C79.319 248.779 78.9458 248.567 78.8244 248.128C78.703 247.689 78.9144 247.315 79.3124 247.047Z" fill="#454850"/>
<path d="M92.0238 213.656L94.7851 212.26C94.9313 212.22 95.1831 211.992 95.1022 211.699L94.8776 208.61C94.9023 208.13 95.1137 207.756 95.5522 207.635C95.9906 207.513 96.5101 207.684 96.6314 208.123L98.0253 210.889C98.0658 211.035 98.2929 211.288 98.5852 211.207L101.67 210.982C102.149 211.006 102.522 211.218 102.644 211.657C102.765 212.096 102.594 212.617 102.156 212.738L99.3945 214.134C99.2483 214.175 98.9965 214.402 99.0774 214.695L99.302 217.785C99.2773 218.264 99.0659 218.638 98.6274 218.76C98.1889 218.881 97.6696 218.71 97.5482 218.271L96.1542 215.505C96.1138 215.359 95.8867 215.107 95.5944 215.188L92.5094 215.413C92.0304 215.388 91.6572 215.176 91.5358 214.737C91.4144 214.298 91.6258 213.924 92.0238 213.656Z" fill="#454850"/>
<path d="M219.408 173.867L220.855 171.694C220.946 171.603 221.036 171.332 220.855 171.15L219.408 168.977C219.228 168.615 219.228 168.253 219.499 167.981C219.77 167.709 220.222 167.619 220.493 167.89L222.663 169.339C222.754 169.43 223.025 169.52 223.206 169.339L225.376 167.89C225.738 167.709 226.099 167.709 226.371 167.981C226.642 168.253 226.732 168.705 226.461 168.977L225.014 171.15C224.924 171.241 224.833 171.513 225.014 171.694L226.461 173.867C226.642 174.229 226.642 174.592 226.371 174.863C226.099 175.135 225.647 175.225 225.376 174.954L223.206 173.505C223.116 173.414 222.844 173.324 222.663 173.505L220.493 174.954C220.132 175.135 219.77 175.135 219.499 174.863C219.228 174.592 219.137 174.139 219.408 173.867Z" fill="#454850"/>
<path d="M79.5675 158.364L81.4188 154.645C81.5435 154.484 81.6321 154.038 81.3107 153.788L78.5954 150.646C78.238 150.11 78.166 149.539 78.5401 149.056C78.9142 148.573 79.6097 148.34 80.0919 148.715L83.8048 150.569C83.9655 150.694 84.4117 150.782 84.6611 150.46L87.798 147.741C88.3328 147.383 88.9036 147.311 89.3858 147.686C89.8679 148.06 90.1006 148.757 89.7265 149.24L87.8752 152.958C87.7505 153.119 87.6618 153.566 87.9832 153.816L90.6986 156.958C91.056 157.493 91.128 158.065 90.7539 158.548C90.3798 159.031 89.6843 159.264 89.2021 158.889L85.4891 157.035C85.3284 156.91 84.8823 156.821 84.6329 157.143L81.496 159.863C80.9612 160.221 80.3903 160.293 79.9082 159.918C79.4261 159.543 79.1934 158.847 79.5675 158.364Z" fill="#808080"/>
<path d="M116.444 268.209L119.037 266.897C119.175 266.859 119.411 266.646 119.335 266.371L119.124 263.469C119.147 263.018 119.346 262.667 119.758 262.553C120.17 262.439 120.657 262.599 120.771 263.012L122.081 265.609C122.119 265.747 122.332 265.984 122.607 265.908L125.504 265.696C125.954 265.72 126.305 265.919 126.419 266.331C126.533 266.743 126.372 267.232 125.96 267.346L123.367 268.658C123.229 268.696 122.993 268.909 123.069 269.184L123.28 272.086C123.257 272.537 123.058 272.888 122.646 273.002C122.234 273.116 121.746 272.956 121.632 272.543L120.323 269.945C120.285 269.808 120.072 269.571 119.797 269.647L116.9 269.859C116.45 269.835 116.099 269.636 115.985 269.224C115.871 268.811 116.032 268.323 116.444 268.209Z" fill="#454850"/>
<path d="M66.5864 201.76L68.3905 198.556C68.508 198.419 68.6065 198.028 68.3336 197.793L66.0742 194.892C65.7823 194.403 65.7444 193.894 66.0969 193.484C66.4494 193.074 67.0748 192.899 67.4842 193.252L70.6835 195.059C70.82 195.177 71.2105 195.276 71.4454 195.002L74.3413 192.739C74.8303 192.447 75.3382 192.409 75.7476 192.762C76.157 193.115 76.3314 193.741 75.9789 194.152L74.1748 197.356C74.0573 197.492 73.9588 197.884 74.2317 198.119L76.4911 201.019C76.783 201.509 76.8209 202.018 76.4684 202.428C76.1159 202.838 75.4905 203.012 75.0811 202.659L71.8817 200.852C71.7452 200.735 71.3548 200.636 71.1198 200.909L68.224 203.172C67.735 203.465 67.2271 203.503 66.8177 203.15C66.4083 202.797 66.2339 202.17 66.5864 201.76Z" fill="#808080"/>
<path d="M111.84 101.807L115.226 100.169C115.551 100.079 115.623 99.7098 115.578 99.5475L115.239 95.7966C115.267 95.2647 115.618 94.6429 116.104 94.5081C116.591 94.3733 117.167 94.5631 117.508 95.1675L119.144 98.5588C119.233 98.8835 119.602 98.9559 119.764 98.911L123.51 98.5716C124.041 98.5991 124.661 98.9513 124.796 99.4383C124.931 99.9252 124.741 100.502 124.138 100.844L120.752 102.482C120.427 102.572 120.355 102.942 120.4 103.104L120.739 106.855C120.711 107.387 120.36 108.008 119.874 108.143C119.387 108.278 118.811 108.088 118.47 107.484L116.834 104.093C116.745 103.768 116.376 103.695 116.214 103.74L112.468 104.08C111.937 104.052 111.316 103.7 111.182 103.213C111.002 102.564 111.192 101.987 111.84 101.807Z" fill="#454850"/>
<path d="M190.951 138.364L192.652 137.541C192.814 137.496 192.851 137.311 192.828 137.229L192.658 135.345C192.672 135.078 192.848 134.766 193.093 134.698C193.337 134.63 193.626 134.725 193.798 135.029L194.619 136.732C194.664 136.896 194.85 136.932 194.931 136.909L196.812 136.739C197.079 136.753 197.391 136.93 197.458 137.174C197.526 137.419 197.431 137.709 197.128 137.88L195.427 138.703C195.264 138.748 195.228 138.934 195.25 139.015L195.42 140.899C195.407 141.167 195.23 141.479 194.986 141.547C194.742 141.614 194.452 141.519 194.281 141.216L193.459 139.512C193.414 139.349 193.229 139.313 193.147 139.335L191.266 139.506C190.999 139.492 190.688 139.315 190.62 139.07C190.552 138.826 190.729 138.513 190.951 138.364Z" fill="#454850"/>
<path d="M175.838 244.17L179.671 242.316C180.038 242.215 180.12 241.796 180.069 241.612L179.686 237.367C179.717 236.765 180.115 236.061 180.665 235.908C181.215 235.756 181.867 235.971 182.254 236.655L184.105 240.493C184.207 240.861 184.624 240.943 184.808 240.892L189.047 240.508C189.648 240.539 190.351 240.938 190.503 241.489C190.656 242.04 190.441 242.693 189.758 243.08L185.925 244.934C185.558 245.036 185.476 245.454 185.527 245.638L185.911 249.884C185.88 250.486 185.482 251.19 184.931 251.342C184.381 251.495 183.729 251.28 183.342 250.596L181.491 246.757C181.39 246.39 180.972 246.308 180.788 246.359L176.549 246.743C175.948 246.712 175.245 246.313 175.093 245.762C174.941 245.211 175.155 244.558 175.838 244.17Z" fill="#808080"/>
<path d="M123.716 190.753L127.549 188.899C127.915 188.797 127.997 188.379 127.947 188.195L127.563 183.95C127.594 183.347 127.992 182.644 128.542 182.491C129.093 182.338 129.745 182.553 130.131 183.237L131.983 187.076C132.084 187.444 132.502 187.526 132.685 187.475L136.924 187.091C137.526 187.122 138.228 187.52 138.381 188.072C138.533 188.623 138.319 189.276 137.636 189.663L133.803 191.517C133.436 191.619 133.354 192.037 133.405 192.221L133.788 196.467C133.757 197.069 133.359 197.772 132.809 197.925C132.258 198.078 131.606 197.863 131.22 197.179L129.369 193.34C129.267 192.972 128.849 192.89 128.666 192.941L124.427 193.325C123.826 193.294 123.123 192.896 122.97 192.344C122.818 191.793 123.033 191.14 123.716 190.753Z" fill="#808080"/>
<path d="M193.8 204.876L196.554 203.544C196.818 203.471 196.877 203.17 196.84 203.038L196.565 199.987C196.587 199.554 196.873 199.048 197.269 198.938C197.664 198.829 198.133 198.983 198.411 199.475L199.741 202.234C199.814 202.498 200.114 202.557 200.246 202.52L203.293 202.244C203.725 202.266 204.23 202.553 204.339 202.949C204.449 203.345 204.295 203.814 203.804 204.093L201.049 205.425C200.785 205.498 200.727 205.799 200.763 205.931L201.039 208.982C201.016 209.415 200.73 209.921 200.335 210.031C199.939 210.14 199.471 209.986 199.193 209.494L197.862 206.735C197.789 206.471 197.489 206.412 197.357 206.449L194.311 206.725C193.879 206.703 193.374 206.416 193.264 206.02C193.155 205.624 193.441 205.118 193.8 204.876Z" fill="#454850"/>
<path d="M40.5756 164.468L44.6605 164.098C45.0141 164 45.2887 164.305 45.3376 164.482L47.1215 168.181C47.4451 168.663 48.1222 169.048 48.6525 168.9C49.1829 168.753 49.6153 168.252 49.5963 167.495L49.2268 163.404C49.1289 163.05 49.4335 162.775 49.6102 162.726L53.3036 160.939C53.785 160.615 54.1685 159.937 54.0216 159.406C53.8748 158.875 53.3745 158.441 52.6184 158.461L48.5335 158.831C48.18 158.929 47.9054 158.624 47.8564 158.447L46.0726 154.748C45.749 154.265 45.0718 153.881 44.5415 154.028C44.0112 154.175 43.5787 154.677 43.5977 155.434L43.9673 159.525C44.0652 159.879 43.7606 160.154 43.5838 160.203L39.8905 161.99C39.4091 162.314 39.0256 162.992 39.1724 163.523C39.3682 164.231 40.0453 164.615 40.5756 164.468Z" fill="#454850"/>
<path d="M18.7383 245.889L24.5139 245.366C25.0138 245.227 25.4021 245.659 25.4713 245.909L27.9935 251.139C28.451 251.821 29.4084 252.364 30.1583 252.156C30.9081 251.948 31.5195 251.239 31.4927 250.169L30.9701 244.384C30.8318 243.884 31.2624 243.495 31.5124 243.425L36.7344 240.899C37.4151 240.441 37.9573 239.482 37.7497 238.731C37.5421 237.98 36.8346 237.368 35.7657 237.395L29.99 237.918C29.4901 238.057 29.1018 237.625 29.0326 237.375L26.5105 232.145C26.0529 231.463 25.0955 230.92 24.3456 231.128C23.5958 231.336 22.9844 232.045 23.0112 233.115L23.5338 238.9C23.6722 239.4 23.2415 239.789 22.9915 239.859L17.7695 242.385C17.0888 242.843 16.5466 243.802 16.7542 244.553C17.031 245.554 17.9884 246.097 18.7383 245.889Z" fill="#808080"/>
<path d="M28.3291 99.0496L33.6544 98.567C34.1153 98.4392 34.4733 98.837 34.5371 99.0678L36.8626 103.89C37.2845 104.519 38.1673 105.019 38.8586 104.828C39.55 104.636 40.1138 103.983 40.089 102.995L39.6072 97.662C39.4796 97.2003 39.8767 96.8417 40.1071 96.7778L44.922 94.4488C45.5496 94.0263 46.0496 93.1421 45.8581 92.4497C45.6667 91.7573 45.0144 91.1926 44.0288 91.2174L38.7035 91.7C38.2426 91.8278 37.8845 91.43 37.8207 91.1992L35.4952 86.377C35.0734 85.7484 34.1906 85.2477 33.4992 85.4394C32.8079 85.6311 32.2441 86.2844 32.2689 87.2716L32.7506 92.605C32.8783 93.0667 32.4812 93.4253 32.2507 93.4892L27.4358 95.8182C26.8082 96.2407 26.3083 97.1249 26.4997 97.8173C26.7549 98.7406 27.6377 99.2413 28.3291 99.0496Z" fill="#808080"/>
<path d="M253.848 207.996L261.107 210.587C261.787 210.698 262.016 211.435 261.96 211.776L262.094 219.493C262.267 220.57 263.12 221.76 264.14 221.927C265.16 222.095 266.292 221.581 266.855 220.274L269.442 213.004C269.554 212.323 270.289 212.094 270.629 212.15L278.334 212.016C279.41 211.843 280.598 210.989 280.765 209.967C280.932 208.945 280.42 207.812 279.115 207.248L271.856 204.657C271.176 204.545 270.947 203.808 271.003 203.467L270.869 195.751C270.697 194.673 269.844 193.484 268.823 193.316C267.803 193.149 266.671 193.662 266.108 194.969L263.521 202.239C263.41 202.92 262.674 203.149 262.334 203.093L254.629 203.227C253.553 203.4 252.366 204.255 252.198 205.276C251.975 206.639 252.828 207.828 253.848 207.996Z" fill="#808080"/>
<path d="M87.0541 125.562C86.3797 125.749 85.9843 126.448 86.1711 127.124C86.3578 127.799 87.0559 128.195 87.7303 128.008C88.4047 127.821 88.8001 127.122 88.6133 126.447C88.4266 125.771 87.7285 125.375 87.0541 125.562Z" fill="#454850"/>
<path d="M130.667 157.449C129.993 157.636 129.597 158.336 129.784 159.011C129.971 159.687 130.669 160.082 131.343 159.895C132.018 159.708 132.413 159.009 132.226 158.334C132.04 157.658 131.342 157.262 130.667 157.449Z" fill="#454850"/>
<path d="M158.997 106.008C158.64 106.611 158.838 107.389 159.44 107.747C160.041 108.105 160.819 107.906 161.176 107.304C161.533 106.701 161.335 105.922 160.733 105.565C160.131 105.207 159.354 105.405 158.997 106.008Z" fill="#454850"/>
<path d="M118.113 81.6867C117.756 82.2893 117.954 83.0679 118.556 83.4257C119.157 83.7835 119.935 83.585 120.292 82.9823C120.649 82.3797 120.451 81.6011 119.849 81.2433C119.247 80.8855 118.47 81.084 118.113 81.6867Z" fill="#454850"/>
<path d="M45.1815 137.555C44.8242 138.158 45.0224 138.936 45.6242 139.294C46.2259 139.652 47.0033 139.453 47.3605 138.85C47.7177 138.248 47.5195 137.469 46.9178 137.111C46.3161 136.754 45.5387 136.952 45.1815 137.555Z" fill="#454850"/>
<path d="M50.4898 187.458C50.1326 188.06 50.3308 188.839 50.9325 189.197C51.5342 189.554 52.3116 189.356 52.6689 188.753C53.0261 188.151 52.8279 187.372 52.2261 187.014C51.6244 186.657 50.847 186.855 50.4898 187.458Z" fill="#454850"/>
<path d="M100.785 187.458C100.428 188.06 100.626 188.839 101.228 189.197C101.83 189.554 102.607 189.356 102.965 188.753C103.322 188.151 103.124 187.372 102.522 187.014C101.92 186.657 101.143 186.855 100.785 187.458Z" fill="#454850"/>
<path d="M64.3113 237.333C63.9541 237.936 64.1523 238.714 64.754 239.072C65.3558 239.43 66.1332 239.231 66.4904 238.629C66.8476 238.026 66.6494 237.248 66.0477 236.89C65.4459 236.532 64.6686 236.731 64.3113 237.333Z" fill="#454850"/>
<path d="M97.7364 262.821C97.3792 263.424 97.5774 264.203 98.1791 264.56C98.7808 264.918 99.5582 264.72 99.9154 264.117C100.273 263.514 100.074 262.736 99.4727 262.378C98.871 262.02 98.0936 262.219 97.7364 262.821Z" fill="#454850"/>
<path d="M158.882 263.23C158.524 263.833 158.723 264.611 159.324 264.969C159.926 265.327 160.703 265.128 161.061 264.526C161.418 263.923 161.22 263.145 160.618 262.787C160.016 262.429 159.239 262.627 158.882 263.23Z" fill="#454850"/>
<path d="M201.426 225.214C201.068 225.816 201.267 226.595 201.868 226.953C202.47 227.311 203.247 227.112 203.605 226.509C203.962 225.907 203.764 225.128 203.162 224.77C202.56 224.413 201.783 224.611 201.426 225.214Z" fill="#454850"/>
<path d="M224.097 183.98C223.74 184.583 223.938 185.362 224.54 185.719C225.142 186.077 225.919 185.879 226.277 185.276C226.634 184.673 226.436 183.895 225.834 183.537C225.232 183.179 224.455 183.378 224.097 183.98Z" fill="#454850"/>
<path d="M198.496 120.669C198.139 121.272 198.337 122.05 198.939 122.408C199.54 122.766 200.318 122.567 200.675 121.964C201.032 121.362 200.834 120.583 200.232 120.225C199.631 119.868 198.853 120.066 198.496 120.669Z" fill="#454850"/>
<path d="M215.821 181.874L228.663 171.53L224.662 166.538L211.821 176.882L215.821 181.874Z" fill="#757575"/>
<path d="M297.814 139.639L272.067 107.197L211.911 156.299L237.659 188.74L297.814 139.639Z" fill="#535353" stroke="#757575" stroke-width="4.10715" stroke-miterlimit="10"/>
<path d="M255.18 177.963L226.121 139.514" stroke="#757575" stroke-width="4.10715" stroke-miterlimit="10"/>
<path d="M269.391 167.19L240.332 128.74" stroke="#757575" stroke-width="4.10715" stroke-miterlimit="10"/>
<path d="M283.6 156.417L254.541 117.968" stroke="#757575" stroke-width="4.10715" stroke-miterlimit="10"/>
<path d="M278.454 120.031L221.611 163.125" stroke="#757575" stroke-width="4.10715" stroke-miterlimit="10"/>
<path d="M288.158 132.868L231.314 175.962" stroke="#757575" stroke-width="4.10715" stroke-miterlimit="10"/>
<path d="M230.278 230.79C225.767 234.209 219.356 233.314 215.935 228.787L210.264 221.283C209.982 220.911 210.057 220.366 210.428 220.085L225.442 208.703C225.813 208.422 226.356 208.498 226.637 208.87L232.308 216.374C235.668 220.948 234.726 227.417 230.278 230.79Z" fill="#757575"/>
<path d="M194.772 153.721L165.794 175.69L205.633 228.403L205.68 228.465C205.68 228.465 205.68 228.465 205.727 228.527C207.382 230.588 215.135 227.344 223.106 221.302C231.076 215.259 236.237 208.714 234.767 206.511C234.767 206.511 234.767 206.511 234.72 206.449L234.673 206.387L194.833 153.674L194.772 153.721Z" fill="#535353"/>
<path d="M209.066 172.636L220.127 187.271L220.174 187.333L220.221 187.396C221.753 189.551 216.531 196.144 208.56 202.186C200.59 208.229 192.899 211.426 191.181 209.411L191.135 209.349L191.088 209.287L180.026 194.651C181.682 196.713 189.435 193.469 197.405 187.426C205.376 181.384 210.551 174.729 209.066 172.636Z" fill="#757575"/>
<path d="M197.113 128.289C203.916 136.776 197.055 153.644 181.766 165.956C166.477 178.269 148.502 181.402 141.698 172.915C141.657 172.864 141.616 172.812 141.575 172.761C141.533 172.71 141.451 172.607 141.41 172.555C139.282 169.106 149.559 156.766 164.59 144.661C179.621 132.557 193.898 125.207 196.759 127.981C196.801 128.033 196.883 128.135 196.924 128.187C196.989 128.135 197.03 128.186 197.113 128.289Z" fill="#757575"/>
<path d="M195.901 127.811L195.941 127.86C196.689 128.901 196.105 130.994 194.407 133.64C190.988 139.033 183.19 146.986 173.231 154.851C163.272 162.716 153.626 168.54 147.593 170.612C144.597 171.673 142.39 171.784 141.516 170.843L141.475 170.793C141.435 170.744 141.394 170.694 141.353 170.645C139.26 167.322 149.365 155.425 164.145 143.753C178.925 132.08 192.965 124.99 195.779 127.662C195.82 127.712 195.86 127.761 195.901 127.811Z" fill="#757575"/>
<path d="M194.476 134.237L194.516 134.286C191.114 139.616 183.354 147.479 173.443 155.255C163.533 163.031 153.933 168.789 147.93 170.838L147.889 170.789C147.849 170.74 147.809 170.691 147.809 170.691C146.025 167.898 154.682 157.718 167.307 147.813C179.995 137.857 191.98 131.841 194.395 134.139C194.395 134.139 194.435 134.188 194.476 134.237Z" fill="#535353"/>
<path d="M171.731 146.497C171.927 146.904 170.762 148.364 169.099 149.768C167.366 151.231 165.758 152.111 165.448 151.705L155.694 136.092L158.952 133.342L171.642 146.381L171.731 146.497Z" fill="#757575"/>
<path d="M158.125 135.219C160.175 133.528 160.775 130.799 159.465 129.123C158.155 127.447 155.431 127.46 153.381 129.15C151.33 130.841 150.73 133.57 152.04 135.246C153.35 136.922 156.074 136.91 158.125 135.219Z" fill="#757575"/>
<path d="M127.181 272.491L101.434 240.05L161.589 190.948L187.337 223.39L127.181 272.491Z" fill="#535353" stroke="#757575" stroke-width="4.10715" stroke-miterlimit="10"/>
<path d="M173.126 240.171L144.067 201.721" stroke="#757575" stroke-width="4.10715" stroke-miterlimit="10"/>
<path d="M158.914 250.944L129.855 212.495" stroke="#757575" stroke-width="4.10715" stroke-miterlimit="10"/>
<path d="M144.704 261.717L115.644 223.267" stroke="#757575" stroke-width="4.10715" stroke-miterlimit="10"/>
<path d="M111.136 246.879L167.98 203.786" stroke="#757575" stroke-width="4.10715" stroke-miterlimit="10"/>
<path d="M120.838 259.716L177.681 216.622" stroke="#757575" stroke-width="4.10715" stroke-miterlimit="10"/>
<path d="M183.397 197.875L170.556 208.219L174.557 213.212L187.398 202.868L183.397 197.875Z" fill="#757575"/>
<path d="M75.6623 87.4745C75.0645 91.4655 72.4744 99.2479 67.8918 100.445C67.6926 100.445 67.4933 100.445 67.2941 100.645C62.9108 101.243 57.9297 98.2501 54.7418 96.0551C53.1479 94.8578 51.554 93.461 50.1593 92.0641C49.5615 91.4655 48.7646 90.6673 48.1668 90.0686C43.5843 85.0799 39.9979 78.8939 37.8062 72.3088C37.4078 70.912 37.0093 69.5151 37.2085 68.1183C37.2085 67.7192 37.4078 67.5197 37.4078 67.3201C37.8062 66.3224 38.6032 65.3246 39.7987 65.1251C40.7949 64.9255 41.5918 65.3246 42.5881 65.5242C43.5843 65.9233 44.3812 66.3224 45.3774 66.921C43.1858 64.3269 42.5881 59.9368 42.5881 56.744C42.5881 56.5445 42.5881 56.1454 42.7873 56.1454C42.9865 55.9459 43.5843 56.1454 43.7835 56.3449C46.9714 58.7395 46.9714 63.1296 48.3661 66.7215C48.3661 64.1273 48.5653 61.5332 48.5653 58.9391C48.5653 57.1431 48.7646 54.9481 50.1593 53.7508C50.3585 53.5513 50.5577 53.5513 50.757 53.5513C51.1555 53.5513 51.3547 53.9504 51.554 54.1499C53.9449 58.3404 52.5502 63.5287 52.9486 68.3179C53.1479 70.1138 53.3471 71.9097 53.7456 73.7057C53.9449 74.5039 54.3433 76.2998 54.7418 78.0957C55.1403 78.8939 55.5388 79.6921 56.1365 80.4903C56.3358 80.8894 56.7342 81.2885 57.1327 81.4881C57.7305 82.0867 58.5274 82.6853 59.3244 83.284C60.9183 84.0822 62.5123 84.6808 64.3055 85.0799C67.4933 85.6786 70.6812 85.6786 73.8691 85.8781C74.4668 85.8781 75.0645 86.0777 75.463 86.4768C75.6623 86.8759 75.6623 87.0754 75.6623 87.4745Z" fill="#949494"/>
<path d="M117.501 153.525C113.317 153.525 108.934 152.128 105.746 150.133C99.5692 146.142 95.7836 140.155 92.1973 134.768L99.1707 130.178C102.359 134.967 105.546 140.155 110.129 142.949C113.715 145.344 119.493 146.142 122.681 143.348C126.666 139.756 125.67 132.972 124.076 127.983C122.084 121.797 118.298 116.409 113.715 113.017L118.696 106.432C124.873 111.021 129.655 117.806 132.046 125.588C135.433 136.164 134.237 144.545 128.26 149.734C125.271 152.328 121.287 153.525 117.501 153.525Z" fill="#535353"/>
<path d="M126.067 87.2755C126.266 90.2688 125.27 93.262 124.075 96.2552C119.492 108.228 114.71 120.201 109.131 131.775C107.936 133.97 106.94 136.364 105.744 138.559C104.15 141.752 102.158 145.344 98.5716 146.142C95.583 146.741 92.7936 145.344 90.2034 143.947C89.4065 143.548 88.6095 142.95 88.211 142.151C87.8125 141.353 88.0118 140.355 88.211 139.557C90.6019 127.584 95.1845 116.41 99.7671 105.035C101.959 99.448 104.35 93.6611 106.143 87.8742C107.538 83.8832 108.534 78.6949 113.714 78.2959C118.496 78.0963 125.669 81.8877 126.067 87.2755Z" fill="#535353"/>
<path d="M70.4806 122.994C70.4806 123.393 70.4806 123.593 70.4806 123.992C70.2814 126.586 69.6836 128.98 68.2889 131.175C66.695 133.57 64.3041 135.566 61.5147 136.164C60.917 136.364 60.3193 136.364 59.7215 136.364C57.1314 136.563 54.5412 135.765 52.1503 134.767C49.1617 133.57 46.1731 132.173 42.7859 131.974C40.9928 131.774 39.1996 131.974 37.4064 132.373C36.4102 132.572 35.6132 132.971 34.617 133.171C33.6208 133.57 32.6246 133.969 31.6284 134.368C28.2413 135.965 24.8542 138.16 21.467 139.556C18.6776 140.754 15.2905 141.352 12.8996 139.556C11.7042 138.758 11.1064 137.361 10.5087 136.164C7.1216 129.779 4.13297 123.393 1.14433 116.808C0.945092 116.608 0.74585 116.209 0.74585 115.81C0.74585 114.812 1.9413 114.014 2.73827 113.615C2.93751 113.416 3.13676 113.416 3.336 113.216C5.52766 112.218 7.52008 111.42 9.91099 111.021C12.5011 110.822 15.2905 111.221 17.0837 113.017C18.2792 114.214 19.0761 115.611 19.8731 117.207C20.6701 119.003 21.6663 120.799 22.4632 122.595C24.8542 120.599 27.2451 118.604 29.8352 116.808C30.6322 116.209 31.4291 115.81 32.2261 115.411C33.6208 114.613 35.2147 113.815 36.8087 113.416C39.3988 112.418 42.1882 112.019 44.9776 111.819C46.3723 111.62 47.767 111.42 49.1617 111.62C50.7556 111.62 52.3496 112.019 53.7443 112.218C57.5299 113.017 61.5147 113.815 65.3003 114.613L61.1162 114.214C64.5033 115.012 68.4882 116.209 69.8829 119.402C70.4806 120.4 70.4806 121.797 70.4806 122.994Z" fill="#949494"/>
<path d="M55.7373 113.417C54.3426 118.805 55.538 124.592 58.9252 129.181C59.1244 129.381 59.3236 129.78 59.7221 129.58C59.9214 129.58 59.9214 129.381 60.1206 129.181C60.7183 127.784 60.9176 126.188 61.1168 124.791C61.5153 121.399 62.7108 116.011 61.5153 112.619C60.1206 109.426 56.335 110.823 55.7373 113.417Z" fill="#535353"/>
<path d="M80.4426 75.1019C78.8487 77.2969 76.8562 79.0929 75.0631 81.0884C64.5032 92.4626 59.5222 108.227 56.5335 123.592C55.7366 127.583 55.3381 131.973 57.729 134.966C58.9244 136.363 60.5184 137.361 62.1123 138.159C64.7025 139.556 67.0934 140.953 69.6835 142.35C72.6722 143.946 75.86 145.742 79.2471 145.942C83.232 146.141 87.2168 144.146 90.2055 141.352C93.1941 138.558 95.1865 134.966 97.1789 131.375C102.16 122.195 106.743 112.817 110.727 103.238C111.923 100.445 113.118 97.4513 113.517 94.4581C114.115 90.068 113.118 85.678 112.321 81.4875C112.122 80.4897 111.923 79.2924 111.126 78.4942C110.13 77.4965 108.536 77.4965 107.34 77.696C98.5736 78.0951 89.6077 78.8933 81.2396 76.8978C79.4464 76.4987 77.454 75.9001 76.4578 74.3037" fill="#949494"/>
<path d="M37.4086 132.572C36.4124 132.772 35.6154 133.171 34.6192 133.37C34.42 130.577 34.0215 127.384 33.2245 124.391C32.4275 121.797 31.4313 119.402 29.8374 117.007C30.6344 116.409 31.4313 116.01 32.2283 115.611C33.8222 118.205 35.0177 120.799 35.8147 123.593C36.6116 126.586 37.2094 129.779 37.4086 132.572Z" fill="#535353"/>
<path d="M64.504 128.581C63.707 130.577 64.1055 127.983 63.9062 130.377C63.9062 132.572 64.504 134.767 65.6994 136.763C68.0903 140.155 72.2744 142.151 76.2593 143.548C79.8456 144.745 83.6312 145.344 87.2176 143.548C91.6009 141.353 94.988 136.164 94.5895 131.176C94.1911 124.59 86.4206 121.198 80.6426 120.599C73.4699 119.801 69.8835 122.395 64.3047 126.586V128.581H64.504Z" fill="#535353"/>
<path d="M120.09 65.3251C120.09 65.5246 119.891 65.9237 119.891 66.1233C118.895 70.5133 117.699 74.7039 117.301 79.2935C117.102 81.289 117.5 84.8808 115.508 86.2777C113.914 87.2754 111.124 86.6768 109.331 86.6768C103.752 86.2777 98.3729 85.2799 92.5949 85.2799C92.1964 85.2799 91.7979 85.2799 91.2002 85.2799C89.2078 85.0804 87.4146 84.2822 85.8207 83.2844C83.629 82.2867 81.6366 81.0894 79.4449 80.2912C77.6518 79.6926 75.6593 79.2935 74.6631 77.6971C73.4677 76.1007 73.4677 74.1052 73.2684 72.3093C72.6707 66.3228 72.8699 59.9373 74.4639 54.1504C75.4601 50.5585 77.4525 46.9666 80.4411 44.3725C87.0161 38.386 97.576 37.1887 105.745 41.1797C111.722 44.1729 116.902 49.3612 119.293 55.7467C120.29 58.5404 120.688 61.9328 120.09 65.3251Z" fill="#949494"/>
<path d="M120.091 65.3256C120.091 65.5252 119.891 65.9243 119.891 66.1238C118.895 70.5139 117.7 74.7044 117.301 79.294C117.102 81.2895 117.5 84.8814 115.508 86.2782C113.914 87.276 111.125 86.6773 109.331 86.6773C103.753 86.2782 98.3732 85.2805 92.5951 85.2805C92.1966 85.2805 91.7982 85.2805 91.2004 85.2805C93.5913 84.2827 96.1815 84.2827 98.7716 83.8836C106.941 82.4868 114.113 76.6999 117.301 69.1171C118.297 66.7225 118.895 64.1283 119.094 61.5342C119.294 59.5387 119.294 57.5433 118.895 55.7473C120.29 58.541 120.688 61.9333 120.091 65.3256Z" fill="#797979" stroke="#535353" stroke-width="5.06525" stroke-miterlimit="10" stroke-linecap="round" stroke-linejoin="round"/>
<path d="M102.16 81.8892C99.9685 83.8847 97.3783 85.2815 94.5889 85.2815C89.8071 85.2815 84.8261 84.2838 80.4428 82.0888C79.0481 81.2906 77.8526 80.4924 76.6572 79.6942C76.0594 79.0955 75.2625 78.4969 74.864 77.8983C73.4693 76.3019 72.6723 74.5059 72.2738 72.3109C71.0784 67.7213 71.8753 62.1339 73.4693 57.7439C75.2625 53.1542 78.0519 51.3583 82.8337 51.1588C87.6155 50.7597 93.1943 52.356 97.7768 54.5511C97.9761 54.7506 98.1753 54.7506 98.3746 54.9502C100.367 55.9479 102.16 57.1452 103.555 58.542C110.329 64.728 108.536 75.9028 102.16 81.8892Z" fill="#D6D6D6"/>
<path d="M91.599 134.568C91.599 134.768 91.599 134.768 91.599 134.967C91.599 135.965 91.3997 136.763 91.0013 137.562C89.6066 141.353 85.6217 143.748 81.6369 144.945C77.652 146.142 73.468 146.342 69.6824 147.539C66.4945 148.537 63.3066 149.934 60.9157 152.129C60.318 152.727 59.7203 153.126 59.3218 153.725C59.3218 153.925 59.1225 153.925 59.1225 154.124C54.7392 159.512 53.5437 167.294 48.3635 172.083C47.965 172.483 47.5665 172.682 47.168 172.882C46.7695 172.882 46.371 172.682 45.9725 172.682C38.6006 169.489 31.8264 165.498 25.0521 161.308C24.0559 160.709 22.8605 159.911 22.2627 158.913C21.8642 158.115 21.8642 157.317 22.2627 156.519C23.2589 153.525 27.6423 149.934 29.6347 149.135C31.8264 148.337 34.4165 148.537 36.6082 149.335C38.7998 150.133 40.9915 151.53 42.7847 152.927C43.1832 150.133 43.9801 147.14 45.1756 144.546C45.5741 143.748 45.9725 142.949 46.371 142.151C46.7695 141.353 47.3672 140.754 47.7657 139.956C48.9612 138.16 50.5551 136.564 52.149 135.167C54.3407 133.171 56.7316 131.376 59.1225 129.779C62.7089 127.385 66.4945 125.19 70.4793 124.192C71.0771 123.992 71.6748 123.992 72.2725 123.793C76.2574 122.994 80.6407 123.593 84.4263 125.19C86.6179 125.988 88.6104 127.385 90.0051 129.18C91.0013 130.577 91.599 132.573 91.599 134.568Z" fill="#949494"/>
<path d="M60.7169 152.128C60.1192 152.726 59.5215 153.126 59.123 153.724C59.123 153.924 58.9237 153.924 58.9237 154.123C56.5328 151.13 53.7434 148.735 50.5556 146.94C49.1609 146.141 47.5669 145.543 45.973 144.944C45.7738 144.745 45.3753 144.745 45.176 144.545C45.5745 143.747 45.973 142.949 46.3715 142.15C46.5707 142.15 46.77 142.35 46.9692 142.35C48.5631 142.949 50.3563 143.547 51.9503 144.545C55.1381 146.341 58.326 148.935 60.7169 152.128Z" fill="#535353"/>
<path d="M151.572 100.047C151.572 100.247 151.572 100.646 151.373 100.845C150.775 103.04 148.584 104.238 146.392 104.637C145.794 104.836 144.997 104.836 144.4 104.836C142.806 105.036 141.411 105.036 139.817 105.435C138.223 105.834 136.629 106.832 135.035 107.63C133.441 108.428 131.648 109.027 130.054 109.426C129.058 109.625 128.062 109.825 127.066 110.024C122.682 110.623 118.299 110.224 114.115 108.827C111.525 108.029 109.532 105.834 108.337 103.04C106.544 98.6502 106.942 93.0628 111.126 90.4687C116.506 87.0764 119.893 91.8655 124.276 93.861C125.073 94.2601 125.87 94.4597 126.667 94.6592C127.663 94.8588 128.66 94.8588 129.656 94.8588C131.847 94.6592 134.039 94.0606 136.031 93.0628C139.618 91.2669 142.806 88.4732 145.994 85.8791C146.591 85.48 147.189 84.8813 147.986 85.0809C148.783 85.2804 149.181 86.2782 149.181 87.2759V87.4755C148.982 88.2737 148.584 89.0719 148.385 89.8701C147.986 93.4619 151.971 96.6547 151.572 100.047Z" fill="#949494"/>
<path d="M149.979 108.628L135.235 35.9925C135.036 35.1943 135.634 34.5956 136.231 34.3961C137.028 34.1965 137.626 34.7952 137.825 35.3938L152.569 108.029C152.768 108.828 152.171 109.426 151.573 109.626C150.975 109.825 150.178 109.227 149.979 108.628Z" fill="#797979" stroke="#535353" stroke-width="5.06525" stroke-miterlimit="10" stroke-linecap="round" stroke-linejoin="round"/>
<path d="M154.562 98.8496C154.363 98.2509 153.765 97.8518 153.167 97.8518L153.765 97.6523C154.761 97.2532 155.16 96.0559 154.761 95.0581C154.363 94.2599 153.367 93.8608 152.57 94.0604L152.968 93.8609C153.964 93.4618 154.363 92.2645 153.964 91.2667C153.765 90.6681 153.367 90.4685 152.769 90.269C153.566 89.6703 153.964 88.6726 153.566 87.6748C153.167 86.6771 151.972 86.278 150.976 86.6771L144.201 89.8699C143.205 90.269 142.807 91.4663 143.205 92.464C143.404 93.0627 143.803 93.2622 144.401 93.4618C143.604 94.0604 143.205 95.0581 143.604 96.0559C144.002 96.8541 144.998 97.2532 145.795 97.0536L145.198 97.2532C144.201 97.6523 143.803 98.8496 144.201 99.8473C144.401 100.446 144.998 100.845 145.596 100.845C144.799 101.444 144.6 102.441 144.998 103.24C145.397 104.237 146.592 104.636 147.589 104.237L153.566 101.444C154.562 101.045 154.96 100.047 154.562 98.8496Z" fill="#626262"/>
<path opacity="0.4" d="M94.7875 62.5317C93.9905 63.729 92.3966 64.1281 91.2011 63.5294C90.8027 63.3299 90.2049 63.1303 89.8065 62.9308C84.2277 60.7358 78.2504 62.1326 76.6565 66.3231C76.258 67.3209 74.8633 67.1213 74.8633 66.1236C74.664 64.7267 74.8633 63.1303 75.461 61.7335C77.4534 56.3457 84.0284 53.9511 90.2049 56.3457C91.7989 56.9443 93.1936 57.9421 94.389 58.9398C95.3852 59.9376 95.3852 61.3344 94.7875 62.5317Z" fill="#797979"/>
<path opacity="0.4" d="M75.6596 93.0611C79.6444 95.0566 87.8133 97.6507 92.7944 98.0498C93.7906 98.2494 94.1891 99.0476 93.9898 100.045C90.6027 108.027 87.8133 116.009 86.8171 119.002C86.6179 119.801 85.8209 120.2 85.2232 120C81.6368 119.002 71.6747 116.209 67.6899 114.612C66.8929 114.413 66.6937 113.615 66.8929 112.816C70.28 104.435 72.6709 97.0521 73.6671 93.8593C74.0656 93.0611 75.0618 92.662 75.6596 93.0611Z" fill="#535353"/>
<path d="M130.254 109.225C129.258 109.425 128.262 109.624 127.266 109.824C125.672 107.429 124.676 104.236 124.875 101.044C125.074 99.2476 125.672 96.6534 126.867 94.658C127.864 94.8575 128.86 94.8575 129.856 94.8575C128.66 96.6534 127.664 99.2476 127.465 101.243C127.266 104.236 128.461 107.429 130.254 109.225Z" fill="#535353"/>
<path d="M59.5231 83.2854C55.9367 85.6799 52.7489 88.6732 49.9595 92.0655C49.3617 91.4668 48.5648 90.6686 47.967 90.07C50.5572 86.8772 53.7451 84.0835 57.1322 81.689L59.5231 83.2854Z" fill="#535353"/>
<g filter="url(#filter0_d_2008_657)">
<path d="M189.028 62.1321C170.299 55.9461 162.529 79.4928 143.402 69.5153L136.627 36.3903C157.349 45.1704 165.318 25.2156 182.254 29.007L189.028 62.1321Z" fill="url(#paint0_linear_2008_657)"/>
</g>
<defs>
<filter id="filter0_d_2008_657" x="80.9096" y="0.663074" width="163.836" height="154.927" filterUnits="userSpaceOnUse" color-interpolation-filters="sRGB">
<feFlood flood-opacity="0" result="BackgroundImageFix"/>
<feColorMatrix in="SourceAlpha" type="matrix" values="0 0 0 0 0 0 0 0 0 0 0 0 0 0 0 0 0 0 127 0" result="hardAlpha"/>
<feOffset dy="27.8589"/>
<feGaussianBlur stdDeviation="27.8589"/>
<feColorMatrix type="matrix" values="0 0 0 0 0.397708 0 0 0 0 0.47749 0 0 0 0 0.575 0 0 0 0.27 0"/>
<feBlend mode="normal" in2="BackgroundImageFix" result="effect1_dropShadow_2008_657"/>
<feBlend mode="normal" in="SourceGraphic" in2="effect1_dropShadow_2008_657" result="shape"/>
</filter>
<linearGradient id="paint0_linear_2008_657" x1="167.218" y1="90.1157" x2="124.471" y2="38.6118" gradientUnits="userSpaceOnUse">
<stop stop-color="#FB432C"/>
<stop offset="1" stop-color="#FF591E"/>
</linearGradient>
</defs>
</svg>
