<?xml version="1.0" encoding="UTF-8"?>
<svg version="1.1" xmlns="http://www.w3.org/2000/svg" width="760" height="240">
<path d="M0 0 C8.94374623 0.45652038 17.55625608 1.91615433 26.2902832 3.79150391 C28.4285927 4.24809802 30.57028445 4.68516815 32.71289062 5.12109375 C50.07651191 8.74575797 68.4857987 14.72884504 79 30 C83.72298938 37.55120382 87.74801305 45.07959297 89 54 C90.03898437 54.23074219 91.07796875 54.46148437 92.1484375 54.69921875 C104.57024756 57.5589053 114.23209644 61.57695273 124 70 C124.6909375 70.57234375 125.381875 71.1446875 126.09375 71.734375 C136.14332166 80.7789895 141.32988871 94.61844198 142.27734375 107.8828125 C142.63509476 118.18628742 140.95114936 127.46570482 137 137 C138.98 137 140.96 137 143 137 C143 141.29 143 145.58 143 150 C139.57767028 151.14077657 136.91326783 151.09815117 133.3125 151.0625 C132.13300781 151.05347656 130.95351562 151.04445312 129.73828125 151.03515625 C128.83464844 151.02355469 127.93101562 151.01195312 127 151 C126.71769531 151.56460938 126.43539062 152.12921875 126.14453125 152.7109375 C122.6875 159.625 122.6875 159.625 121.3515625 162.26953125 C120.46274369 164.06515076 119.60231719 165.87515549 118.7734375 167.69921875 C115.58322377 174.5839058 112.58383528 177.63792675 106.25 181.8125 C100.59016044 183.8805183 95.26972981 183.84064067 89.625 181.75 C87 180 87 180 85.3203125 177.890625 C82.06554086 175.23858885 79.22258442 175.72485852 75.25 176 C68.9374914 176.19835062 64.00155374 176.17776842 59 172 C54.43277594 167.64885966 50.99263825 162.63374492 47.6015625 157.34765625 C45.85193175 154.78295362 43.92795945 152.44434193 41.9375 150.0625 C31.07526386 136.65054049 27.52521919 120.02628423 29 103 C31.31741208 87.00420446 38.37546809 74.29212248 50.65234375 63.71484375 C53 62 53 62 55 62 C55 61.34 55 60.68 55 60 C53.7625 60.0825 52.525 60.165 51.25 60.25 C40.01218063 60.23230265 29.99638541 54.83868708 21.875 47.4375 C15.37027547 40.60116207 12.27529655 32.63114198 10.125 23.5625 C8.42867466 16.52347478 5.63219442 11.51146773 1.609375 5.609375 C0 3 0 3 0 0 Z " fill="#EDC62E" transform="translate(8,36)"/>
<path d="M0 0 C8.94374623 0.45652038 17.55625608 1.91615433 26.2902832 3.79150391 C28.4285927 4.24809802 30.57028445 4.68516815 32.71289062 5.12109375 C50.07651191 8.74575797 68.4857987 14.72884504 79 30 C83.68420214 37.48919006 87.94567145 45.11351649 89 54 C88.505 54.99 88.505 54.99 88 56 C85.07090383 56.62981595 82.21001386 57.13529602 79.25 57.5625 C77.95751343 57.75646362 77.95751343 57.75646362 76.63891602 57.9543457 C69.77344688 58.95450679 62.93260283 59.67622459 56 60 C55.1440625 60.06445312 54.288125 60.12890625 53.40625 60.1953125 C42.34740836 60.72025751 32.37394587 56.19852239 23.9453125 49.32421875 C16.16310822 42.23213448 12.52214911 33.67221582 10.125 23.5625 C8.42867466 16.52347478 5.63219442 11.51146773 1.609375 5.609375 C0 3 0 3 0 0 Z " fill="#187042" transform="translate(8,36)"/>
<path d="M0 0 C2.37051707 1.98461894 4.58444446 3.98517095 6.6875 6.25 C7.739375 5.1053125 7.739375 5.1053125 8.8125 3.9375 C13.97616735 -0.88940644 18.2588181 -2.33194512 25.22265625 -2.1015625 C30.27559288 -1.38085838 33.49081377 0.98862803 37 4.6875 C43.05670175 13.88471377 41.84778641 25.36701459 41.81787109 35.97314453 C41.81244686 38.27252599 41.81787632 40.57171774 41.82421875 42.87109375 C41.82355906 44.3307296 41.82228017 45.79036533 41.8203125 47.25 C41.82233673 47.93843994 41.82436096 48.62687988 41.82644653 49.33618164 C41.80249527 54.13500473 41.80249527 54.13500473 40.6875 55.25 C38.15700598 55.32313567 35.65445163 55.34247527 33.125 55.3125 C32.41408203 55.30798828 31.70316406 55.30347656 30.97070312 55.29882812 C29.20959987 55.28700864 27.44853964 55.26907263 25.6875 55.25 C25.67291748 54.15534424 25.65833496 53.06068848 25.64331055 51.93286133 C25.58521261 47.86043095 25.50798073 43.78854685 25.42504883 39.71655273 C25.39185346 37.95622645 25.36380476 36.19579512 25.34106445 34.43530273 C25.3074188 31.90042475 25.2550994 29.36650477 25.19921875 26.83203125 C25.19282883 26.04850784 25.1864389 25.26498444 25.17985535 24.4577179 C25.05904129 19.93873141 24.61707137 16.78150843 21.6875 13.25 C18.57998473 12.78717858 16.42874372 13.02350886 13.4375 13.9375 C10.99707728 15.76781704 10.59798629 17.33910945 9.6875 20.25 C9.42892641 23.7832949 9.42892641 23.7832949 9.52734375 27.6328125 C9.53254532 28.32889618 9.53774689 29.02497986 9.54310608 29.74215698 C9.56083027 31.953323 9.59199661 34.16401349 9.625 36.375 C9.65265986 38.59308002 9.67735778 40.8110933 9.69618225 43.02926636 C9.71399082 45.03666966 9.74139768 47.04398097 9.76928711 49.05126953 C9.6875 52.25 9.6875 52.25 8.6875 55.25 C3.3149299 56.25735689 -0.90653148 56.01021432 -6.3125 55.25 C-6.33231934 54.08428467 -6.35213867 52.91856934 -6.37255859 51.7175293 C-6.44858959 47.39553095 -6.53731076 43.07387038 -6.62988281 38.75219727 C-6.66818294 36.88117132 -6.703034 35.01007147 -6.734375 33.13891602 C-6.78000324 30.45041481 -6.83800088 27.76242277 -6.8984375 25.07421875 C-6.90998871 24.23662521 -6.92153992 23.39903168 -6.93344116 22.53605652 C-7.03296457 18.62626963 -7.0972302 16.5729047 -9.3125 13.25 C-13.64114588 12.59661949 -15.59707488 12.73676024 -19.1875 15.3125 C-22.79809618 20.30361825 -22.43688897 25.99407705 -22.375 31.98828125 C-22.36726562 33.21998047 -22.35953125 34.45167969 -22.3515625 35.72070312 C-22.33867187 36.98849609 -22.32578125 38.25628906 -22.3125 39.5625 C-22.28708469 42.10021866 -22.26601975 44.63798588 -22.25 47.17578125 C-22.23839844 48.29380127 -22.22679687 49.41182129 -22.21484375 50.5637207 C-22.3125 53.25 -22.3125 53.25 -23.3125 55.25 C-28.2625 55.25 -33.2125 55.25 -38.3125 55.25 C-38.3125 36.77 -38.3125 18.29 -38.3125 -0.75 C-33.0325 -0.75 -27.7525 -0.75 -22.3125 -0.75 C-21.9825 0.57 -21.6525 1.89 -21.3125 3.25 C-20.57 2.610625 -19.8275 1.97125 -19.0625 1.3125 C-13.50875752 -2.85280686 -6.09430535 -3.21963302 0 0 Z " fill="#08121A" transform="translate(234.3125,130.75)"/>
<path d="M0 0 C4.95 0 9.9 0 15 0 C15 27.06 15 54.12 15 82 C9.72 82 4.44 82 -1 82 C-1.33 80.68 -1.66 79.36 -2 78 C-2.46148438 78.34933594 -2.92296875 78.69867188 -3.3984375 79.05859375 C-8.78004085 82.8129534 -13.39657898 84.48317715 -20 84 C-26.88538261 82.53008686 -32.53680099 80.68043511 -37 75 C-37.86625 74.13375 -38.7325 73.2675 -39.625 72.375 C-44.60453148 66.28017913 -45.62329227 57.60416566 -45 50 C-43.54468328 41.47831207 -40.07921873 33.7430993 -32.98046875 28.51171875 C-25.84786982 24.31259335 -18.10236539 23.55010304 -10 25 C-7.17536525 26.45847154 -4.57923919 28.14561742 -2 30 C-1.96241577 28.69011108 -1.96241577 28.69011108 -1.92407227 27.35375977 C-1.82912291 24.12397448 -1.72987971 20.89435846 -1.62768555 17.66479492 C-1.58428566 16.26510801 -1.54261436 14.86536641 -1.50268555 13.46557617 C-1.44510555 11.45738505 -1.38086 9.44938851 -1.31640625 7.44140625 C-1.27974854 6.23170166 -1.24309082 5.02199707 -1.20532227 3.77563477 C-1 1 -1 1 0 0 Z M-26 44 C-28.88586092 48.69326862 -28.63463745 53.65975801 -28 59 C-25.9976035 63.004793 -23.82001123 65.6587028 -20 68 C-15.34022851 69.55325716 -11.49847493 69.47010978 -6.8125 68 C-2.49896745 64.93259907 -0.59867902 61.15833727 0.3828125 55.98046875 C0.69852571 50.64491555 -0.97719059 46.35404666 -4 42 C-7.16372035 38.93214997 -10.18085645 38.73071239 -14.4375 38.5 C-20.04095554 38.65103654 -22.30765928 39.83428227 -26 44 Z " fill="#051018" transform="translate(572,104)"/>
<path d="M0 0 C4.07952286 5.04572565 4.07952286 5.04572565 3.83203125 8.015625 C2.25497431 11.77686879 -1.36939664 13.46575596 -5 15 C-8.5 14.8125 -8.5 14.8125 -11 14 C-11 13.34 -11 12.68 -11 12 C-16.53613706 10.57131947 -22.55211412 10.18403804 -28 12 C-28.33 14.31 -28.66 16.62 -29 19 C-24.27178398 21.50317319 -19.59472345 23.54993305 -14.5625 25.375 C-5.38819007 28.8512449 1.99589868 33.27933525 7.10546875 41.85546875 C9.43393008 47.43767516 8.64502254 54.21660115 6.5 59.75 C3.42900626 65.80517494 -1.43483133 69.49107726 -7.1875 72.875 C-17.8953136 76.0346827 -28.10655958 75.52742279 -38.31640625 70.96484375 C-43.36488502 68.1388452 -47.30031106 64.14372551 -50 59 C-50 57.68 -50 56.36 -50 55 C-48.04414675 53.99515796 -46.08523763 52.99626195 -44.125 52 C-43.03445313 51.443125 -41.94390625 50.88625 -40.8203125 50.3125 C-38 49 -38 49 -36 49 C-34.17641627 50.97180605 -32.52997206 53.05618027 -30.8515625 55.15234375 C-27.80761945 58.18986498 -25.28740657 57.98175196 -21.0625 58.25 C-17.30020099 58.20788471 -15.00861891 57.37042702 -12 55 C-10.56264754 52.12529507 -10.61827351 50.18105412 -11 47 C-15.1597262 42.73840296 -20.28585835 41.22704408 -25.75 39.25 C-33.95215367 36.12786608 -42.08519041 32.9063247 -46.1875 24.59375 C-48.0474641 18.65617231 -47.93820321 12.23912151 -45.3125 6.5625 C-41.19339429 -0.46000314 -34.04865019 -3.48540494 -26.5 -5.75 C-17.33593692 -6.66640631 -7.50821641 -5.96240715 0 0 Z " fill="#071219" transform="translate(454,113)"/>
<path d="M0 0 C6.6321226 4.712646 10.7347598 10.10511222 13 18 C14.25482493 27.96620569 12.71662519 35.70330503 7 44 C4.89154809 46.48998131 2.76137727 48.27342456 0 50 C-0.63292969 50.40992188 -1.26585937 50.81984375 -1.91796875 51.2421875 C-8.83501958 55.00568608 -16.33457368 55.01837281 -24 54 C-32.58222254 51.37682933 -38.56887358 46.79981902 -43 39 C-46.72728628 31.35772237 -47.22973984 23.37046672 -44.75 15.25 C-41.55605035 6.83630857 -36.34882506 1.32972771 -28.5 -2.875 C-19.26382375 -5.88170845 -8.18192211 -5.37716585 0 0 Z M-28.25 15.875 C-31.25557292 21.24209451 -31.27382592 24.91269247 -29.77734375 30.78125 C-28.44590361 34.58154145 -27.08423871 36.30949389 -24 39 C-19.39090059 41.02350706 -16.04381078 41.29089808 -11.1875 39.9375 C-6.35391025 36.99943564 -4.12201094 34.14252579 -2.5625 28.75 C-1.61018809 23.60236807 -2.51278394 19.5761235 -5 15 C-7.6092459 11.88163295 -9.3737299 10.26843882 -13.4375 9.59765625 C-20.19470408 9.34627217 -23.986446 10.42712545 -28.25 15.875 Z " fill="#081219" transform="translate(511,133)"/>
<path d="M0 0 C7.8486229 5.12655716 12.0771273 10.47356939 15.02734375 19.32421875 C15.88844493 30.30678796 14.70477904 37.85766782 7.96484375 46.57421875 C1.62664052 53.27422217 -5.49585464 55.60399746 -14.59765625 55.88671875 C-24.0880023 55.52133562 -30.31559023 52.67750201 -37.24609375 46.2578125 C-42.98844874 39.82689459 -44.29490167 32.56957421 -44.18359375 24.19921875 C-43.60949661 16.37448734 -40.42593998 9.93681189 -34.97265625 4.32421875 C-25.18648796 -3.37188965 -11.33874753 -6.01777103 0 0 Z M-25.66015625 15.421875 C-28.45028254 19.46589733 -29.17979244 23.6166528 -28.80859375 28.46875 C-27.83553419 33.45806519 -25.76739465 36.8594576 -21.97265625 40.32421875 C-17.92895291 42.24412832 -14.70241706 42.42316937 -10.28515625 41.82421875 C-5.64196961 39.72164367 -3.17003078 37.03256591 -1.15234375 32.46875 C0.50539899 27.21223663 0.11293136 22.41693269 -1.97265625 17.32421875 C-4.77678 13.95927025 -6.90895058 11.59458815 -11.328125 11.015625 C-17.33624589 10.74215191 -21.33129115 10.99935657 -25.66015625 15.421875 Z " fill="#09131A" transform="translate(324.97265625,131.67578125)"/>
<path d="M0 0 C6.14676006 3.67765983 9.70709723 8.57560856 11.5625 15.4375 C11.82292092 18.55291259 11.79602667 21.64900978 11.7578125 24.7734375 C11.7549826 25.65278961 11.75215271 26.53214172 11.74923706 27.43814087 C11.73809712 30.22973594 11.71300411 33.0210029 11.6875 35.8125 C11.6774622 37.71223493 11.66833775 39.61197492 11.66015625 41.51171875 C11.63817806 46.15377107 11.6036911 50.79558002 11.5625 55.4375 C6.6125 55.4375 1.6625 55.4375 -3.4375 55.4375 C-3.49357422 51.98603516 -3.49357422 51.98603516 -3.55078125 48.46484375 C-3.59709428 46.21743683 -3.64829205 43.97019004 -3.69995117 41.72290039 C-3.73304777 40.17026638 -3.76112651 38.61751647 -3.78393555 37.06469727 C-3.81776524 34.8225806 -3.87008987 32.58151153 -3.92578125 30.33984375 C-3.93217117 29.65413803 -3.9385611 28.96843231 -3.94514465 28.26194763 C-4.09543361 23.24965227 -5.11096601 19.80200298 -7.4375 15.4375 C-11.49544019 12.86226872 -13.48981546 12.28214188 -18.25 13.0625 C-21.66834305 14.19412131 -21.66834305 14.19412131 -23.4375 17.4375 C-24.68694087 25.06689834 -24.52011831 32.66258036 -24.4375 40.375 C-24.4120863 42.80073759 -24.39102081 45.22652594 -24.375 47.65234375 C-24.36339844 48.71573975 -24.35179687 49.77913574 -24.33984375 50.87475586 C-24.4375 53.4375 -24.4375 53.4375 -25.4375 55.4375 C-28.0546875 55.88671875 -28.0546875 55.88671875 -31.3125 56.125 C-32.38242187 56.21136719 -33.45234375 56.29773438 -34.5546875 56.38671875 C-37.4375 56.4375 -37.4375 56.4375 -40.4375 55.4375 C-40.4375 36.9575 -40.4375 18.4775 -40.4375 -0.5625 C-35.4875 -0.5625 -30.5375 -0.5625 -25.4375 -0.5625 C-25.1075 0.4275 -24.7775 1.4175 -24.4375 2.4375 C-23.550625 1.7775 -22.66375 1.1175 -21.75 0.4375 C-15.36077447 -3.19864461 -6.64657144 -2.95261154 0 0 Z " fill="#061117" transform="translate(386.4375,130.5625)"/>
<path d="M0 0 C5.76546126 5.51478903 7.02645699 11.65337204 7.22705078 19.41821289 C7.2267409 20.93639751 7.21585331 22.45461057 7.1953125 23.97265625 C7.1924826 24.78117538 7.18965271 25.58969452 7.18673706 26.42271423 C7.17566777 28.96946918 7.15058958 31.5158539 7.125 34.0625 C7.11495302 35.80403133 7.1058302 37.54556825 7.09765625 39.28710938 C7.07577213 43.52487917 7.04133646 47.76237713 7 52 C2.05 52 -2.9 52 -8 52 C-8.495 50.02 -8.495 50.02 -9 48 C-9.69222656 48.52400391 -9.69222656 48.52400391 -10.3984375 49.05859375 C-15.77553088 52.80980712 -20.41162589 54.34565397 -27 54 C-33.24482622 52.85566012 -36.41211417 50.11001921 -40 45 C-42.09428889 40.81142223 -41.41793012 35.56140874 -41 31 C-38.66409845 25.76758052 -35.1451026 23.25181839 -30 21 C-26.39067477 20.01074408 -22.75180925 19.36530517 -19.0625 18.75 C-18.09248047 18.57726562 -17.12246094 18.40453125 -16.12304688 18.2265625 C-13.75076812 17.80586282 -11.37564139 17.40127635 -9 17 C-9.33 14.03 -9.66 11.06 -10 8 C-16.81256416 6.29685896 -21.12256417 6.61567919 -27.10546875 10.125 C-29 11 -29 11 -33 11 C-35.8125 8.25 -35.8125 8.25 -38 5 C-37.91796875 2.9609375 -37.91796875 2.9609375 -37 1 C-25.84724555 -7.01051014 -10.9575866 -9.00523264 0 0 Z M-24 32 C-26.31543207 34.76988076 -26.31543207 34.76988076 -25.6875 37.625 C-25.2258486 39.93501965 -25.2258486 39.93501965 -24 41 C-19.24972565 41.40256562 -16.89968588 41.46650379 -12.625 39.25 C-10.1727378 37.14806097 -8.9489629 36.03668129 -8 33 C-8 31.68 -8 30.36 -8 29 C-13.58352713 28.55919523 -18.88855963 29.76604315 -24 32 Z " fill="#071219" transform="translate(705,134)"/>
<path d="M0 0 C5.62608085 4.73482052 8.09529795 10.67096625 8.84472656 17.8996582 C9.03645686 20.87583526 9.16475723 23.84749417 9.265625 26.828125 C9.3061499 27.88515625 9.3466748 28.9421875 9.38842773 30.03125 C9.65391249 38.2269206 9.3431546 46.1678093 8.578125 54.328125 C3.628125 54.328125 -1.321875 54.328125 -6.421875 54.328125 C-6.751875 53.008125 -7.081875 51.688125 -7.421875 50.328125 C-8.411875 51.25625 -8.411875 51.25625 -9.421875 52.203125 C-14.13903602 55.54444739 -18.78161159 56.65508638 -24.546875 56.203125 C-29.8027094 55.01632368 -33.96994142 52.50678144 -37.421875 48.328125 C-39.42642933 42.31446202 -39.44250895 35.61434504 -36.859375 29.828125 C-31.48425395 24.31518033 -25.50402206 22.54455441 -18.171875 21.078125 C-17.37007812 20.90539062 -16.56828125 20.73265625 -15.7421875 20.5546875 C-12.54640697 19.88132906 -9.69999183 19.328125 -6.421875 19.328125 C-7.411875 16.358125 -8.401875 13.388125 -9.421875 10.328125 C-15.88904501 9.05778803 -19.43066619 9.539114 -25.421875 12.328125 C-26.081875 12.988125 -26.741875 13.648125 -27.421875 14.328125 C-29.484375 14.140625 -29.484375 14.140625 -31.421875 13.328125 C-31.751875 12.338125 -32.081875 11.348125 -32.421875 10.328125 C-33.081875 10.328125 -33.741875 10.328125 -34.421875 10.328125 C-35.081875 9.008125 -35.741875 7.688125 -36.421875 6.328125 C-27.81173626 -3.04173186 -11.472811 -7.08321374 0 0 Z M-15.546875 32.703125 C-16.60132813 32.95835937 -17.65578125 33.21359375 -18.7421875 33.4765625 C-21.53977332 34.1395276 -21.53977332 34.1395276 -23.421875 36.328125 C-23.75520833 38.828125 -23.75520833 38.828125 -23.421875 41.328125 C-21.44679408 43.72536445 -21.44679408 43.72536445 -17.671875 43.703125 C-13.24195043 43.55814565 -10.69129454 42.4418579 -7.421875 39.328125 C-6.35020176 36.62833279 -5.90437038 34.22309727 -5.421875 31.328125 C-9.14881287 31.328125 -11.95593224 31.81200653 -15.546875 32.703125 Z " fill="#081118" transform="translate(631.421875,131.671875)"/>
<path d="M0 0 C1.958964 0.30852185 3.91715713 0.6219418 5.875 0.9375 C6.96554688 1.11152344 8.05609375 1.28554688 9.1796875 1.46484375 C12 2 12 2 14 3 C14.12601135 4.7465759 14.17579494 6.4989234 14.1875 8.25 C14.39489418 12.41848632 14.39489418 12.41848632 16.6171875 15.76953125 C18.35994558 16.92787045 20.17703091 17.97250833 22 19 C22 19.66 22 20.32 22 21 C22.74507812 21.27714844 23.49015625 21.55429687 24.2578125 21.83984375 C26.74891016 22.89376968 28.6755838 24.01230906 30.875 25.5625 C42.07845101 33.16749158 53.61538199 39.53671461 66 45 C66 45.66 66 46.32 66 47 C66.78375 47.144375 67.5675 47.28875 68.375 47.4375 C71 48 71 48 73 49 C73 48.34 73 47.68 73 47 C73.66 47 74.32 47 75 47 C75 47.99 75 48.98 75 50 C76.0725 49.835 77.145 49.67 78.25 49.5 C82 49 82 49 86 49 C85.67 50.65 85.34 52.3 85 54 C74.35301012 55.78761499 63.80051748 57.49558023 53 58 C52.1440625 58.06445312 51.288125 58.12890625 50.40625 58.1953125 C41.71779091 58.60773936 32.29721883 55.73333113 25 51 C24.4375 49.125 24.4375 49.125 24 47 C22.35697047 45.31002677 20.68528688 43.64783606 19 42 C11.8512444 34.62608675 8.7818293 24.19158364 7.515625 14.1640625 C6.84275896 10.03511178 4.97727512 8.83204219 2 6 C0.6875 2.6875 0.6875 2.6875 0 0 Z " fill="#28884F" transform="translate(11,38)"/>
<path d="M0 0 C6.21295696 5.32539168 9.13719423 16.03103008 10 24 C10.69621932 35.74870098 9.55350632 46.01219126 5 57 C6.98 57 8.96 57 11 57 C11 61.29 11 65.58 11 70 C7.57767028 71.14077657 4.91326783 71.09815117 1.3125 71.0625 C0.13300781 71.05347656 -1.04648438 71.04445313 -2.26171875 71.03515625 C-3.61716797 71.01775391 -3.61716797 71.01775391 -5 71 C-5.28230469 71.56460938 -5.56460938 72.12921875 -5.85546875 72.7109375 C-9.3125 79.625 -9.3125 79.625 -10.6484375 82.26953125 C-11.53725631 84.06515076 -12.39768281 85.87515549 -13.2265625 87.69921875 C-15.76328978 93.17363988 -17.92256187 96.65105144 -23 100 C-28.27619556 101.67134145 -34.2367326 102.16751428 -39.39453125 99.98828125 C-44.73958333 96.78125 -44.73958333 96.78125 -46 93 C-43.525 92.505 -43.525 92.505 -41 92 C-41 90.68 -41 89.36 -41 88 C-40.34 88 -39.68 88 -39 88 C-39.33 87.34 -39.66 86.68 -40 86 C-41.485 86.495 -41.485 86.495 -43 87 C-43 87.66 -43 88.32 -43 89 C-44.75 90.6875 -44.75 90.6875 -47 92 C-49.25 91.6875 -49.25 91.6875 -51 91 C-50.34 90.01 -49.68 89.02 -49 88 C-48.38125 87.9175 -47.7625 87.835 -47.125 87.75 C-44.03452136 86.65924283 -43.57626046 84.41936811 -42.12109375 81.65625 C-41 80 -41 80 -38.1875 78.5625 C-34.72604925 77.95165575 -31.50813651 77.85967454 -28 78 C-27.71125 77.236875 -27.4225 76.47375 -27.125 75.6875 C-26 73 -26 73 -24 70 C-23.34 70 -22.68 70 -22 70 C-21.67 69.34 -21.34 68.68 -21 68 C-21 68.66 -21 69.32 -21 70 C-19.515 70.495 -19.515 70.495 -18 71 C-17.29788106 72.65204456 -16.63028587 74.31923769 -16 76 C-15.01 76.495 -15.01 76.495 -14 77 C-13.814375 76.13375 -13.814375 76.13375 -13.625 75.25 C-12.95166524 72.82599488 -12.44928906 71.07041295 -11 69 C-10.030625 68.690625 -9.06125 68.38125 -8.0625 68.0625 C-4.3036115 66.75839583 -3.73522936 65.47045872 -2 62 C-1.34 61.34 -0.68 60.68 0 60 C0.28875 59.13375 0.5775 58.2675 0.875 57.375 C1.77665462 54.67003614 2.63425519 52.89157432 4.046875 50.5 C6.6821535 45.28805791 6.51764628 40.36088181 6.375 34.625 C6.37371094 33.64789063 6.37242187 32.67078125 6.37109375 31.6640625 C6.27426892 23.57380978 5.60068441 15.43838051 1.875 8.125 C0.24409749 4.89890817 0 3.83767083 0 0 Z " fill="#ECC433" transform="translate(140,116)"/>
<path d="M0 0 C-1.49005777 6.29135504 -5.21085691 10.90690079 -9 16 C-9.59554687 16.8146875 -10.19109375 17.629375 -10.8046875 18.46875 C-16.87256777 26.55925703 -22.61087605 31.38842549 -32.6328125 33.57421875 C-37.06328639 34.13445269 -41.41496733 34.10615996 -45.875 34.0625 C-46.75414063 34.05798828 -47.63328125 34.05347656 -48.5390625 34.04882812 C-50.69273803 34.03712337 -52.84637817 34.01919069 -55 34 C-55.38388328 27.31083386 -53.1199085 24.05705507 -49 19 C-37.71091994 6.65727247 -16.6561855 -0.87664134 0 0 Z " fill="#217A49" transform="translate(155,55)"/>
<path d="M0 0 C1.93166016 0.01740234 1.93166016 0.01740234 3.90234375 0.03515625 C5.19269531 0.04417969 6.48304688 0.05320313 7.8125 0.0625 C8.81152344 0.07410156 9.81054688 0.08570313 10.83984375 0.09765625 C12.11453782 2.6470444 11.96000559 4.42806623 11.95336914 7.28173828 C11.95329361 8.36270782 11.95321808 9.44367737 11.95314026 10.55740356 C11.94797897 11.72826508 11.94281769 12.89912659 11.9375 14.10546875 C11.93608505 15.30122528 11.9346701 16.49698181 11.93321228 17.72897339 C11.92760038 21.56022612 11.91504583 25.39142109 11.90234375 29.22265625 C11.89733028 31.81510332 11.89276711 34.40755131 11.88867188 37 C11.87762708 43.36590523 11.86087734 49.73177662 11.83984375 56.09765625 C6.31016434 56.80799056 1.34001339 57.40032801 -4.16015625 56.09765625 C-4.18542188 48.28312873 -4.2029873 40.46861167 -4.21508789 32.65405273 C-4.22013008 29.99324144 -4.22696361 27.33243293 -4.2355957 24.67163086 C-4.24766634 20.85660109 -4.25338554 17.04160781 -4.2578125 13.2265625 C-4.26297379 12.02866592 -4.26813507 10.83076935 -4.27345276 9.59657288 C-4.27352829 8.49550705 -4.27360382 7.39444122 -4.27368164 6.26000977 C-4.27590225 5.28516129 -4.27812286 4.31031281 -4.28041077 3.30592346 C-4.08890713 -0.21071129 -3.61116752 0.11159356 0 0 Z " fill="#0A131A" transform="translate(724.16015625,129.90234375)"/>
<path d="M0 0 C0.77859375 0.14050781 1.5571875 0.28101562 2.359375 0.42578125 C15.11284855 3.48911558 25.41440725 12.52419602 34 22 C33.67 22.66 33.34 23.32 33 24 C32.02160156 23.07767578 32.02160156 23.07767578 31.0234375 22.13671875 C30.14945312 21.32847656 29.27546875 20.52023438 28.375 19.6875 C27.51648438 18.88699219 26.65796875 18.08648437 25.7734375 17.26171875 C22.97566855 14.98015787 20.2609916 13.51837002 17 12 C16.505 11.505 16.505 11.505 16 11 C14.329375 10.7834375 14.329375 10.7834375 12.625 10.5625 C9 10 9 10 6 8 C6 7.01 6 6.02 6 5 C5.071875 4.87625 4.14375 4.7525 3.1875 4.625 C0 4 0 4 -3 2 C-10.0950506 1.40874578 -16.57686329 2.78985713 -23.4921875 4.2890625 C-26.13044813 4.82376566 -28.51934339 5.16737014 -31.1875 5.3125 C-39.78232344 6.86238619 -47.46546586 11.26880984 -53 18 C-53.33 18.99 -53.66 19.98 -54 21 C-55.64488294 22.68816933 -57.31337542 24.35353315 -59 26 C-63.03521311 30.68084721 -63.80532006 36.07030812 -65 42 C-65.17015625 42.82242188 -65.3403125 43.64484375 -65.515625 44.4921875 C-67.26221261 56.37657709 -65.77197995 70.97195396 -58.9375 81 C-58.24527344 81.86625 -57.55304687 82.7325 -56.83984375 83.625 C-53.86246623 87.46840877 -53 90.13358241 -53 95 C-51.35 95 -49.7 95 -48 95 C-47.01 97.97 -46.02 100.94 -45 104 C-43.515 103.505 -43.515 103.505 -42 103 C-41.95875 103.928125 -41.9175 104.85625 -41.875 105.8125 C-41.32262633 109.28061799 -41.32262633 109.28061799 -38 110.75 C-37.01 111.1625 -36.02 111.575 -35 112 C-34.67 112.66 -34.34 113.32 -34 114 C-27.20213698 117.31140538 -21.93310485 117.21018611 -14.75 115 C-13.38875 114.505 -13.38875 114.505 -12 114 C-11.01 113.67 -10.02 113.34 -9 113 C-9 112.34 -9 111.68 -9 111 C-7.02 110.01 -7.02 110.01 -5 109 C-5 109.99 -5 110.98 -5 112 C-5.66 112 -6.32 112 -7 112 C-7 113.32 -7 114.64 -7 116 C-9.475 116.495 -9.475 116.495 -12 117 C-9.59453362 120.87547361 -7.30411529 122.48978411 -3 124 C1.01360451 124.24091879 4.98468411 124.17542642 9 124 C8.67 124.66 8.34 125.32 8 126 C2.55518355 127.81493882 -3.00145847 127.74020057 -8.375 125.75 C-11 124 -11 124 -12.6796875 121.890625 C-15.93445914 119.23858885 -18.77741558 119.72485852 -22.75 120 C-29.0625086 120.19835062 -33.99844626 120.17776842 -39 116 C-43.56722406 111.64885966 -47.00736175 106.63374492 -50.3984375 101.34765625 C-52.14806825 98.78295362 -54.07204055 96.44434193 -56.0625 94.0625 C-66.92473614 80.65054049 -70.47478081 64.02628423 -69 47 C-66.68258792 31.00420446 -59.62453191 18.29212248 -47.34765625 7.71484375 C-45 6 -45 6 -43 6 C-42.67 5.01 -42.34 4.02 -42 3 C-41.38592285 2.9498877 -40.7718457 2.89977539 -40.13916016 2.84814453 C-37.30057723 2.61306189 -34.46282334 2.36907466 -31.625 2.125 C-30.65949219 2.04636719 -29.69398437 1.96773438 -28.69921875 1.88671875 C-23.11171376 1.39921831 -17.73309201 0.64859369 -12.26708984 -0.62036133 C-8.08567163 -1.32056651 -4.13755025 -0.76115311 0 0 Z " fill="#E6C54E" transform="translate(106,92)"/>
<path d="M0 0 C-1.65 0.33 -3.3 0.66 -5 1 C-5 2.98 -5 4.96 -5 7 C-4.3503125 6.0409375 -4.3503125 6.0409375 -3.6875 5.0625 C0.44651583 1.8898832 4.91601822 2.17530972 10 2 C9.125 7.75 9.125 7.75 8 10 C7.34 10 6.68 10 6 10 C6 9.34 6 8.68 6 8 C5.01 8 4.02 8 3 8 C3 9.32 3 10.64 3 12 C1.1015625 13.5625 1.1015625 13.5625 -1.375 15 C-4.77085522 16.98361067 -6.54595776 18.29299122 -8 22 C-8.66 22 -9.32 22 -10 22 C-10.09087891 22.92232422 -10.09087891 22.92232422 -10.18359375 23.86328125 C-10.26738281 24.67152344 -10.35117187 25.47976562 -10.4375 26.3125 C-10.51871094 27.11300781 -10.59992187 27.91351563 -10.68359375 28.73828125 C-11 31 -11 31 -12 34 C-12.09736509 36.76058657 -12.13915328 39.49010996 -12.125 42.25 C-12.12886719 42.98863281 -12.13273437 43.72726563 -12.13671875 44.48828125 C-12.12859717 49.09321539 -11.75710341 53.45737954 -11 58 C-10.34 58 -9.68 58 -9 58 C-8.87625 58.639375 -8.7525 59.27875 -8.625 59.9375 C-8.41875 60.618125 -8.2125 61.29875 -8 62 C-7.34 62.33 -6.68 62.66 -6 63 C-6 64.65 -6 66.3 -6 68 C-9.3125 67.9375 -9.3125 67.9375 -13 67 C-19.80054546 56.44742946 -19.2367401 39.84577556 -17 28 C-16.34 28 -15.68 28 -15 28 C-15.061875 26.989375 -15.12375 25.97875 -15.1875 24.9375 C-14.94343497 19.81213443 -13.28178462 16.56356924 -11 12 C-13.475 11.505 -13.475 11.505 -16 11 C-16 11.99 -16 12.98 -16 14 C-17 16 -17 16 -19.5625 17.4375 C-20.7690625 18.2109375 -20.7690625 18.2109375 -22 19 C-22 19.99 -22 20.98 -22 22 C-22.66 22 -23.32 22 -24 22 C-24 22.99 -24 23.98 -24 25 C-24.66 25 -25.32 25 -26 25 C-26 25.66 -26 26.32 -26 27 C-25.34 27.33 -24.68 27.66 -24 28 C-24.99 28.66 -25.98 29.32 -27 30 C-27.99 31.485 -27.99 31.485 -29 33 C-28.16423839 24.80953621 -25.62334512 18.9117218 -20 13 C-19.34 13 -18.68 13 -18 13 C-17.88205078 12.13761719 -17.88205078 12.13761719 -17.76171875 11.2578125 C-16.21940954 6.68624983 -11.74779979 3.82325978 -8 1 C-2.76190476 -1.38095238 -2.76190476 -1.38095238 0 0 Z " fill="#EDC636" transform="translate(70,100)"/>
<path d="M0 0 C0.89009766 -0.00128906 1.78019531 -0.00257813 2.69726562 -0.00390625 C3.63376953 -0.00003906 4.57027344 0.00382813 5.53515625 0.0078125 C6.46779297 0.00394531 7.40042969 0.00007812 8.36132812 -0.00390625 C9.25271484 -0.00261719 10.14410156 -0.00132812 11.0625 0 C11.88355225 0.00112793 12.70460449 0.00225586 13.55053711 0.00341797 C15.59765625 0.1328125 15.59765625 0.1328125 17.59765625 1.1328125 C17.62450304 3.77871264 17.64441982 6.42434346 17.66015625 9.0703125 C17.66853516 9.82505859 17.67691406 10.57980469 17.68554688 11.35742188 C17.69418066 13.28275563 17.64989958 15.20816831 17.59765625 17.1328125 C16.59765625 18.1328125 16.59765625 18.1328125 14.46459961 18.24633789 C13.54815674 18.24110107 12.63171387 18.23586426 11.6875 18.23046875 C10.69814453 18.22724609 9.70878906 18.22402344 8.68945312 18.22070312 C7.64853516 18.21232422 6.60761719 18.20394531 5.53515625 18.1953125 C4.49037109 18.19080078 3.44558594 18.18628906 2.36914062 18.18164062 C-0.22141035 18.16981163 -2.81184934 18.15332939 -5.40234375 18.1328125 C-5.42918687 15.32024969 -5.44910563 12.50794009 -5.46484375 9.6953125 C-5.47322266 8.89287109 -5.48160156 8.09042969 -5.49023438 7.26367188 C-5.49885805 5.21986029 -5.45462525 3.17597348 -5.40234375 1.1328125 C-3.81821016 -0.45132109 -2.1925659 0.00301621 0 0 Z " fill="#0A1319" transform="translate(168.40234375,139.8671875)"/>
<path d="M0 0 C0 0.33 0 0.66 0 1 C-1.27875 1.268125 -2.5575 1.53625 -3.875 1.8125 C-8.30607519 2.78860056 -12.60886499 4.04693385 -16.93359375 5.4140625 C-19 6 -19 6 -21 6 C-21 7.32 -21 8.64 -21 10 C-23.97 10.66 -26.94 11.32 -30 12 C-29.67 13.98 -29.34 15.96 -29 18 C-27.68 17.67 -26.36 17.34 -25 17 C-26.32 18.65 -27.64 20.3 -29 22 C-27.68 22.33 -26.36 22.66 -25 23 C-26.134375 23.45375 -27.26875 23.9075 -28.4375 24.375 C-32.04721692 25.57095806 -32.04721692 25.57095806 -33 28 C-31.35 28.33 -29.7 28.66 -28 29 C-27.67 28.34 -27.34 27.68 -27 27 C-25.00994193 26.61169599 -23.0064731 26.29185063 -21 26 C-18.32004084 25.37932723 -15.66363851 24.68887203 -13 24 C-13 23.34 -13 22.68 -13 22 C-11.02 21.67 -9.04 21.34 -7 21 C-12.34251187 27.20420733 -18.90435764 30.04143039 -27 31 C-30.29319998 31.11035477 -33.58045733 31.09475079 -36.875 31.0625 C-37.75414063 31.05798828 -38.63328125 31.05347656 -39.5390625 31.04882812 C-41.69273803 31.03712337 -43.84637817 31.01919069 -46 31 C-46.38388328 24.31083386 -44.1199085 21.05705507 -40 16 C-29.75165491 4.7951427 -14.90449154 -0.75218929 0 0 Z " fill="#226E44" transform="translate(146,58)"/>
<path d="M0 0 C0.77859375 0.14050781 1.5571875 0.28101562 2.359375 0.42578125 C15.11284855 3.48911558 25.41440725 12.52419602 34 22 C33.67 22.66 33.34 23.32 33 24 C32.02160156 23.07767578 32.02160156 23.07767578 31.0234375 22.13671875 C30.14945312 21.32847656 29.27546875 20.52023438 28.375 19.6875 C27.51648438 18.88699219 26.65796875 18.08648437 25.7734375 17.26171875 C22.97566855 14.98015787 20.2609916 13.51837002 17 12 C16.505 11.505 16.505 11.505 16 11 C14.329375 10.7834375 14.329375 10.7834375 12.625 10.5625 C9 10 9 10 6 8 C6 7.01 6 6.02 6 5 C5.071875 4.87625 4.14375 4.7525 3.1875 4.625 C0 4 0 4 -3 2 C-10.0950506 1.40874578 -16.57686329 2.78985713 -23.4921875 4.2890625 C-26.13044813 4.82376566 -28.51934339 5.16737014 -31.1875 5.3125 C-39.78232344 6.86238619 -47.46546586 11.26880984 -53 18 C-53.33 18.99 -53.66 19.98 -54 21 C-55.64488294 22.68816933 -57.31337542 24.35353315 -59 26 C-66.60054875 34.94628182 -66.00391072 49.79692532 -67 61 C-67.66 61 -68.32 61 -69 61 C-69.98301579 43.52416372 -66.19074658 27.97525814 -54.4375 14.5625 C-51.50324798 11.38764978 -48.49564832 8.5533937 -45 6 C-44.34 6 -43.68 6 -43 6 C-42.67 5.01 -42.34 4.02 -42 3 C-41.38592285 2.9498877 -40.7718457 2.89977539 -40.13916016 2.84814453 C-37.30057723 2.61306189 -34.46282334 2.36907466 -31.625 2.125 C-30.65949219 2.04636719 -29.69398437 1.96773438 -28.69921875 1.88671875 C-23.11171376 1.39921831 -17.73309201 0.64859369 -12.26708984 -0.62036133 C-8.08567163 -1.32056651 -4.13755025 -0.76115311 0 0 Z " fill="#E7C83F" transform="translate(106,92)"/>
<path d="M0 0 C6.21295696 5.32539168 9.13719423 16.03103008 10 24 C10.69621932 35.74870098 9.55350632 46.01219126 5 57 C6.98 57 8.96 57 11 57 C11 61.29 11 65.58 11 70 C7.57767028 71.14077657 4.91326783 71.09815117 1.3125 71.0625 C0.13300781 71.05347656 -1.04648438 71.04445313 -2.26171875 71.03515625 C-3.61716797 71.01775391 -3.61716797 71.01775391 -5 71 C-5.42925781 71.87398437 -5.42925781 71.87398437 -5.8671875 72.765625 C-7.46319204 75.91360637 -9.23633519 78.942981 -11 82 C-12 79 -12 79 -11.00390625 76.73828125 C-10.52824219 75.93777344 -10.05257812 75.13726562 -9.5625 74.3125 C-8.85287109 73.10013672 -8.85287109 73.10013672 -8.12890625 71.86328125 C-7.75636719 71.24839844 -7.38382813 70.63351563 -7 70 C-6.01 70 -5.02 70 -4 70 C-4.0825 69.0925 -4.165 68.185 -4.25 67.25 C-3.94030033 63.22390429 -2.85443236 62.68652458 0 60 C0.72045764 58.0187415 1.38001259 56.01495907 2 54 C2.67227642 52.83164174 3.35267398 51.66793638 4.0390625 50.5078125 C6.68072272 45.29143006 6.51781345 40.36760416 6.375 34.625 C6.37371094 33.64789063 6.37242187 32.67078125 6.37109375 31.6640625 C6.27426892 23.57380978 5.60068441 15.43838051 1.875 8.125 C0.24409749 4.89890817 0 3.83767083 0 0 Z " fill="#D6BC5A" transform="translate(140,116)"/>
<path d="M0 0 C4.31254083 -0.02682299 8.62491707 -0.04675244 12.9375 -0.0625 C14.16919922 -0.07087891 15.40089844 -0.07925781 16.66992188 -0.08789062 C17.83974609 -0.09111328 19.00957031 -0.09433594 20.21484375 -0.09765625 C21.84087524 -0.10551147 21.84087524 -0.10551147 23.49975586 -0.11352539 C26 0 26 0 27 1 C27.07244053 3.01964199 27.08377188 5.04167124 27.0625 7.0625 C27.05347656 8.16722656 27.04445312 9.27195313 27.03515625 10.41015625 C27.02355469 11.26480469 27.01195312 12.11945313 27 13 C24.0003508 13.19654959 21.00064899 13.38246106 18 13.5625 C17.16082031 13.61857422 16.32164062 13.67464844 15.45703125 13.73242188 C10.14062774 14.0415151 5.26352696 13.82242609 0 13 C0 8.71 0 4.42 0 0 Z " fill="#0A1318" transform="translate(162,173)"/>
<path d="M0 0 C1.43836751 0.11458693 2.87570966 0.24209116 4.3125 0.375 C5.51326172 0.47941406 5.51326172 0.47941406 6.73828125 0.5859375 C9 1 9 1 12 3 C12 2.34 12 1.68 12 1 C12.66 1 13.32 1 14 1 C14 1.99 14 2.98 14 4 C15.0725 3.835 16.145 3.67 17.25 3.5 C21 3 21 3 25 3 C24.67 4.65 24.34 6.3 24 8 C13.35301012 9.78761499 2.80051748 11.49558023 -8 12 C-8.8559375 12.06445312 -9.711875 12.12890625 -10.59375 12.1953125 C-18.9424398 12.59161107 -27.49057632 10.38338593 -34 5 C-32.20909747 4.80533668 -30.41723495 4.61948787 -28.625 4.4375 C-27.12839844 4.28087891 -27.12839844 4.28087891 -25.6015625 4.12109375 C-23 4 -23 4 -21 5 C-20.67 5.33 -20.34 5.66 -20 6 C-19.67 4.68 -19.34 3.36 -19 2 C-12.25 0.875 -12.25 0.875 -10 2 C-10.33 2.99 -10.66 3.98 -11 5 C-13.5625 6.1875 -13.5625 6.1875 -16 7 C-13.11584117 8.44207941 -10.58278472 8.09394887 -7.375 8.0625 C-5.59222656 8.04896484 -5.59222656 8.04896484 -3.7734375 8.03515625 C-2.40058594 8.01775391 -2.40058594 8.01775391 -1 8 C-1.99 7.34 -2.98 6.68 -4 6 C-3.525625 5.566875 -3.05125 5.13375 -2.5625 4.6875 C-0.76313043 2.97690387 -0.76313043 2.97690387 0 0 Z " fill="#258347" transform="translate(72,84)"/>
<path d="M0 0 C2.38312703 1.89428046 3.6500559 3.30011179 5 6 C5.43023798 9.87214182 5.31669086 11.52496371 3.125 14.8125 C0.22424254 17.79857385 -0.56118825 17.95683819 -4.8125 18.375 C-8.23041924 18.31907041 -8.97465048 18.0177986 -11.9375 15.9375 C-14.40599406 12.42176604 -15 10.28616677 -15 6 C-13.79752004 3.15202115 -12.69646878 1.56749308 -10.3125 -0.375 C-6.74614425 -1.33887993 -3.53655601 -1.023931 0 0 Z " fill="#081217" transform="translate(733,106)"/>
<path d="M0 0 C1.96066592 9.25961551 1.96066592 9.25961551 -0.140625 13.06640625 C-3.39989606 16.22668076 -6.42340021 17.40798918 -10.9375 17.6875 C-16.10302492 17.37156575 -20.19992643 15.5222614 -24 12 C-24.33 11.01 -24.66 10.02 -25 9 C-23.35 8.67 -21.7 8.34 -20 8 C-20 7.01 -20 6.02 -20 5 C-19.3709375 4.89042969 -18.741875 4.78085938 -18.09375 4.66796875 C-12.36784852 3.60729724 -5.59478784 0 0 0 Z " fill="#EBC42E" transform="translate(119,200)"/>
<path d="M0 0 C10.01129862 0.46375512 19.50179816 2.40789092 29.25 4.5625 C30.78500503 4.89587934 32.3201606 5.22856629 33.85546875 5.56054688 C37.57209256 6.36574366 41.28656648 7.18022155 45 8 C41.01647791 10.30903272 38.49885947 9.86516528 34 9 C33.67 9.99 33.34 10.98 33 12 C32.34 11.67 31.68 11.34 31 11 C28.02781752 9.74855474 25.14974677 8.69994373 22 8 C22 8.66 22 9.32 22 10 C20.68 10.33 19.36 10.66 18 11 C17.67 9.02 17.34 7.04 17 5 C12.71 4.34 8.42 3.68 4 3 C4.598125 4.27875 5.19625 5.5575 5.8125 6.875 C6.14894531 7.59429687 6.48539063 8.31359375 6.83203125 9.0546875 C7.99467097 11.30542806 7.99467097 11.30542806 11 13 C11.80859375 15.90625 11.80859375 15.90625 12.4375 19.5 C14.54518081 30.09244716 18.14558756 41.8712583 27.21875 48.66015625 C27.8065625 49.10230469 28.394375 49.54445312 29 50 C29 50.66 29 51.32 29 52 C20.01186597 47.87880317 15.50659733 39.92682447 12 31 C11.33711648 28.53069285 10.71302563 26.05069578 10.125 23.5625 C8.42867466 16.52347478 5.63219442 11.51146773 1.609375 5.609375 C0 3 0 3 0 0 Z " fill="#2B6F46" transform="translate(8,36)"/>
<path d="M0 0 C7.59 0 15.18 0 23 0 C23 3.63 23 7.26 23 11 C16.20488172 13.26503943 7.98226753 12.12215014 1 11 C0.67 10.67 0.34 10.34 0 10 C0 6.7 0 3.4 0 0 Z " fill="#10171D" transform="translate(163,126)"/>
<path d="M0 0 C4.14581887 -0.02886751 8.29161216 -0.04675327 12.4375 -0.0625 C14.21350586 -0.07506836 14.21350586 -0.07506836 16.02539062 -0.08789062 C17.15009766 -0.09111328 18.27480469 -0.09433594 19.43359375 -0.09765625 C20.47572021 -0.10289307 21.51784668 -0.10812988 22.59155273 -0.11352539 C25 0 25 0 26 1 C26 3.97 26 6.94 26 10 C17.75 10 9.5 10 1 10 C-1.17766075 5.64467851 -1.03039555 4.53374042 0 0 Z " fill="#0E1318" transform="translate(163,162)"/>
<path d="M0 0 C3.82132368 1.08411798 4.98737057 3.14697716 6.94140625 6.55078125 C7.10041946 10.52611148 6.46329336 11.96749566 3.81640625 14.92578125 C0.14181187 17.0027259 -1.89613602 17.21974767 -6.05859375 16.55078125 C-9.43981366 14.10479238 -10.82796158 12.65781566 -11.68359375 8.55078125 C-10.35989805 2.19704189 -6.20783575 -0.41228511 0 0 Z " fill="#0A1419" transform="translate(655.05859375,170.44921875)"/>
<path d="M0 0 C0.66 0.66 1.32 1.32 2 2 C-2.95 1.67 -7.9 1.34 -13 1 C-13 2.32 -13 3.64 -13 5 C-13.99 5.495 -13.99 5.495 -15 6 C-15.65555119 8.52733235 -15.65555119 8.52733235 -16 11 C-16.66 11 -17.32 11 -18 11 C-18.33 12.65 -18.66 14.3 -19 16 C-20.65 16.33 -22.3 16.66 -24 17 C-24 16.01 -24 15.02 -24 14 C-25.98 14.99 -25.98 14.99 -28 16 C-28 16.99 -28 17.98 -28 19 C-28.66 19 -29.32 19 -30 19 C-30 19.66 -30 20.32 -30 21 C-30.66 21 -31.32 21 -32 21 C-31.67 21.99 -31.34 22.98 -31 24 C-31.33333333 26.33333333 -31.66666667 28.66666667 -32 31 C-32.08751538 34.33530847 -32.0604042 37.6643458 -32 41 C-35.62331259 35.56503111 -35.70345187 29.26068011 -34.65625 22.91796875 C-32.87518531 15.15549513 -29.49001649 8.3088903 -22.98046875 3.51171875 C-15.74374342 -0.74870827 -8.19000172 -0.9725627 0 0 Z " fill="#061016" transform="translate(562,129)"/>
<path d="M0 0 C4.67461851 -0.32613618 7.16674383 0.29417212 11 3 C11.33 2.34 11.66 1.68 12 1 C14.97 1.33 17.94 1.66 21 2 C20.01 2.99 19.02 3.98 18 5 C17.74930087 7.62570704 17.74930087 7.62570704 18 10 C17.01 10.495 17.01 10.495 16 11 C16.33 11.99 16.66 12.98 17 14 C14.47652153 14.93462166 13.25400663 15.08128212 10.65625 14.25 C7.81583841 12.91333572 5.62841105 11.34230144 3.1875 9.375 C2.39730469 8.74335937 1.60710938 8.11171875 0.79296875 7.4609375 C0.20128906 6.97882812 -0.39039063 6.49671875 -1 6 C-1.33 6.66 -1.66 7.32 -2 8 C-1.01 8.33 -0.02 8.66 1 9 C1 9.66 1 10.32 1 11 C-1.86724686 10.42655063 -2.8614515 10.1385485 -5 8 C-5.40047444 5.67724823 -5.7397104 3.34260643 -6 1 C-3.03 1.495 -3.03 1.495 0 2 C0 1.34 0 0.68 0 0 Z " fill="#1A7645" transform="translate(30,44)"/>
<path d="M0 0 C0 0.99 0 1.98 0 3 C-1.8984375 4.46484375 -1.8984375 4.46484375 -4.375 5.9375 C-7.7523373 7.94781982 -9.545022 9.29859991 -11 13 C-11.66 13 -12.32 13 -13 13 C-13.06058594 13.61488281 -13.12117188 14.22976562 -13.18359375 14.86328125 C-13.26738281 15.67152344 -13.35117187 16.47976562 -13.4375 17.3125 C-13.51871094 18.11300781 -13.59992187 18.91351563 -13.68359375 19.73828125 C-14 22 -14 22 -15 25 C-15.09736509 27.76058657 -15.13915328 30.49010996 -15.125 33.25 C-15.12886719 33.98863281 -15.13273437 34.72726563 -15.13671875 35.48828125 C-15.12859717 40.09321539 -14.75710341 44.45737954 -14 49 C-13.34 49 -12.68 49 -12 49 C-10.74335022 51.90600261 -10 53.79604584 -10 57 C-12.40027994 56.63343005 -13.6488726 56.43948298 -15.1953125 54.50390625 C-21.91475445 40.47213041 -20.61093519 27.44859821 -16 13 C-13.12368727 6.51627163 -7.94062408 -1.16773884 0 0 Z " fill="#F8D767" transform="translate(73,109)"/>
<path d="M0 0 C10.83447721 -1.23119059 21.67310158 5.66795359 30 12 C35.40194428 16.75448406 39.01341208 22.37225081 42.4375 28.625 C42.77998779 29.24632813 43.12247559 29.86765625 43.4753418 30.5078125 C45.6851123 34.75957985 46.57139626 38.30346888 47 43 C46.34 43 45.68 43 45 43 C44.505 41.02 44.505 41.02 44 39 C43.67 39 43.34 39 43 39 C42.62101562 37.47052734 42.62101562 37.47052734 42.234375 35.91015625 C39.84936808 27.59401371 33.9269561 18.23055869 27 13 C24.64369805 12.29590977 22.39198845 11.83061077 19.953125 11.51953125 C18 11 18 11 16 8 C13.97203136 7.49218782 13.97203136 7.49218782 11.6875 7.4375 C8.10365845 7.1600413 5.27411997 6.5842516 2 5 C2 3.68 2 2.36 2 1 C1.34 0.67 0.68 0.34 0 0 Z " fill="#217145" transform="translate(49,45)"/>
<path d="M0 0 C0.66 0.66 1.32 1.32 2 2 C-1.96 1.67 -5.92 1.34 -10 1 C-10 1.99 -10 2.98 -10 4 C-10.33 4.33 -10.66 4.66 -11 5 C-10.34 5.33 -9.68 5.66 -9 6 C-9.25 7.875 -9.25 7.875 -10 10 C-12.0625 11.25 -12.0625 11.25 -14 12 C-13.01 12.66 -12.02 13.32 -11 14 C-12.65 14.33 -14.3 14.66 -16 15 C-16.33 14.34 -16.66 13.68 -17 13 C-17.99 13.66 -18.98 14.32 -20 15 C-20.33 14.34 -20.66 13.68 -21 13 C-20.34 12.34 -19.68 11.68 -19 11 C-19.3185177 8.89179203 -19.3185177 8.89179203 -20 7 C-20.66 7 -21.32 7 -22 7 C-22 5.35 -22 3.7 -22 2 C-26.29 2 -30.58 2 -35 2 C-35 20.15 -35 38.3 -35 57 C-35.33 57 -35.66 57 -36 57 C-36 38.52 -36 20.04 -36 1 C-31.05 1 -26.1 1 -21 1 C-20.67 1.99 -20.34 2.98 -20 4 C-19.113125 3.34 -18.22625 2.68 -17.3125 2 C-12.03512431 -1.06218096 -5.91139041 -0.71102038 0 0 Z " fill="#181E22" transform="translate(382,129)"/>
<path d="M0 0 C0.66 0 1.32 0 2 0 C0.79403766 4.52235876 -0.23528108 6.32826399 -4 9 C-4.1134375 9.65355469 -4.226875 10.30710938 -4.34375 10.98046875 C-4.5603125 11.64691406 -4.776875 12.31335938 -5 13 C-6.99609375 14.01171875 -6.99609375 14.01171875 -9.4375 14.6875 C-12.79858166 15.6372485 -12.79858166 15.6372485 -16 17 C-16.66 16.34 -17.32 15.68 -18 15 C-17.34 15 -16.68 15 -16 15 C-16.33 14.34 -16.66 13.68 -17 13 C-17.99 13.33 -18.98 13.66 -20 14 C-20 14.66 -20 15.32 -20 16 C-21.75 17.6875 -21.75 17.6875 -24 19 C-26.25 18.6875 -26.25 18.6875 -28 18 C-27.01 16.515 -27.01 16.515 -26 15 C-25.071875 14.87625 -25.071875 14.87625 -24.125 14.75 C-21.03331272 13.65881625 -20.57498825 11.4153847 -19.1171875 8.65234375 C-18 7 -18 7 -15.25 5.625 C-12.74662397 5.14358153 -10.40141583 4.85040513 -7.875 4.625 C-3.65381087 3.94416304 -2.66088256 3.17259074 0 0 Z " fill="#EAC53F" transform="translate(117,189)"/>
<path d="M0 0 C-1.33388169 3.15220797 -2.47321206 4.61774078 -5.4375 6.3125 C-9.94236357 8.95755751 -14.30627526 11.78780376 -18.6796875 14.64453125 C-21 16 -21 16 -23 16 C-23 15.34 -23 14.68 -23 14 C-21.68 13.67 -20.36 13.34 -19 13 C-19 12.34 -19 11.68 -19 11 C-21.86724686 11.57344937 -22.8614515 11.8614515 -25 14 C-26.32 13.01 -27.64 12.02 -29 11 C-28.030625 10.71125 -27.06125 10.4225 -26.0625 10.125 C-22.89335797 9.35785318 -22.89335797 9.35785318 -22 7 C-21.34 7 -20.68 7 -20 7 C-20 6.34 -20 5.68 -20 5 C-17.79567015 4.15450362 -15.58751467 3.32357186 -13.375 2.5 C-12.14523438 2.0359375 -10.91546875 1.571875 -9.6484375 1.09375 C-6.18957134 0.05683081 -3.57814964 -0.22019382 0 0 Z " fill="#1C7345" transform="translate(145,59)"/>
<path d="M0 0 C0 4.29 0 8.58 0 13 C-3.14930893 14.04976964 -5.38814456 14.10131595 -8.6875 14.0625 C-9.68136719 14.05347656 -10.67523438 14.04445312 -11.69921875 14.03515625 C-12.83810547 14.01775391 -12.83810547 14.01775391 -14 14 C-13.43874637 10.39284183 -12.53544553 7.8177254 -10.5625 4.75 C-9.91474609 3.72132813 -9.91474609 3.72132813 -9.25390625 2.671875 C-6.55548777 -0.92601631 -4.89144854 0 0 0 Z " fill="#101316" transform="translate(151,173)"/>
<path d="M0 0 C0.66 0.33 1.32 0.66 2 1 C1.36191406 1.68707031 0.72382812 2.37414062 0.06640625 3.08203125 C-0.75988281 3.98308594 -1.58617188 4.88414063 -2.4375 5.8125 C-3.26121094 6.70582031 -4.08492187 7.59914063 -4.93359375 8.51953125 C-7.16719088 10.89448083 -7.16719088 10.89448083 -8 14 C-9.64488294 15.68816933 -11.31337542 17.35353315 -13 19 C-20.60054875 27.94628182 -20.00391072 42.79692532 -21 54 C-21.66 54 -22.32 54 -23 54 C-23.98560992 36.47804579 -20.16585204 20.93653746 -8.375 7.5 C-5.75509446 4.66866348 -3.15261159 2.22537289 0 0 Z " fill="#DAC267" transform="translate(60,99)"/>
<path d="M0 0 C0 0.66 0 1.32 0 2 C-1.64556566 3.03435556 -3.3170608 4.02763513 -5 5 C-12.17724419 9.37636841 -13.65303346 17.38995421 -15.75 25.0625 C-18.31689372 36.0454387 -17.13103784 46.37600887 -12.09765625 56.50390625 C-10.98161941 58.32714499 -10.98161941 58.32714499 -8 59 C-7.67 58.01 -7.34 57.02 -7 56 C-7 57.65 -7 59.3 -7 61 C-10.3125 60.9375 -10.3125 60.9375 -14 60 C-20.80054546 49.44742946 -20.2367401 32.84577556 -18 21 C-17.34 21 -16.68 21 -16 21 C-16.061875 19.989375 -16.12375 18.97875 -16.1875 17.9375 C-15.97598978 13.49578546 -15.18744082 10.86447878 -13 7 C-10.125 4.75 -10.125 4.75 -7 3 C-5.63875 2.13375 -5.63875 2.13375 -4.25 1.25 C-2 0 -2 0 0 0 Z " fill="#ECC748" transform="translate(71,107)"/>
<path d="M0 0 C-1.48845572 6.28459083 -5.22532218 10.90457569 -9 16 C-9.59167969 16.79921875 -10.18335938 17.5984375 -10.79296875 18.421875 C-12.18623423 20.28838743 -13.58765045 22.14790792 -15 24 C-16.32342458 20.02972626 -15.36639254 17.88343142 -14 14 C-13.34 13.67 -12.68 13.34 -12 13 C-11.34 13.33 -10.68 13.66 -10 14 C-9.34 12.02 -8.68 10.04 -8 8 C-8.66 7.67 -9.32 7.34 -10 7 C-10 6.01 -10 5.02 -10 4 C-12.97 3.505 -12.97 3.505 -16 3 C-16 2.67 -16 2.34 -16 2 C-10.61972975 0.80911014 -5.54708616 -0.2919519 0 0 Z " fill="#33714A" transform="translate(155,55)"/>
<path d="M0 0 C4.95 0 9.9 0 15 0 C15 27.06 15 54.12 15 82 C14.67 82 14.34 82 14 82 C14 56.26 14 30.52 14 4 C12.35 4.33 10.7 4.66 9 5 C9 4.01 9 3.02 9 2 C6.03 1.67 3.06 1.34 0 1 C0 0.67 0 0.34 0 0 Z " fill="#2A2D2E" transform="translate(572,104)"/>
<path d="M0 0 C0 0.33 0 0.66 0 1 C-1.8253125 1.37125 -1.8253125 1.37125 -3.6875 1.75 C-8.98631305 2.91438886 -14.1139628 4.54061498 -19.27734375 6.1953125 C-22 7 -22 7 -24 7 C-24.33 7.66 -24.66 8.32 -25 9 C-26.31403276 9.70394612 -27.6520257 10.36345658 -29 11 C-35.30339266 14.39413451 -39.10073926 18.43851518 -42 25 C-42.66 25 -43.32 25 -44 25 C-43.67 25.99 -43.34 26.98 -43 28 C-43.99 28.33 -44.98 28.66 -46 29 C-45.63421895 21.68437897 -41.01895732 16.69115612 -35.875 11.875 C-25.48279943 3.43708493 -13.1938659 -0.66585865 0 0 Z " fill="#235636" transform="translate(146,58)"/>
<path d="M0 0 C-0.33 0.99 -0.66 1.98 -1 3 C-1.825 3.309375 -2.65 3.61875 -3.5 3.9375 C-4.325 4.288125 -5.15 4.63875 -6 5 C-6.33 6.32 -6.66 7.64 -7 9 C-4.03 9 -1.06 9 2 9 C2 9.33 2 9.66 2 10 C-7.29521906 10.74032718 -16.65428728 9.07500886 -24 3 C-22.20909747 2.80533668 -20.41723495 2.61948787 -18.625 2.4375 C-17.12839844 2.28087891 -17.12839844 2.28087891 -15.6015625 2.12109375 C-13 2 -13 2 -11 3 C-10.67 3.33 -10.34 3.66 -10 4 C-9.67 2.68 -9.34 1.36 -9 0 C-3.375 -1.125 -3.375 -1.125 0 0 Z " fill="#2F854F" transform="translate(62,86)"/>
<path d="M0 0 C0.33 0 0.66 0 1 0 C1 11.55 1 23.1 1 35 C1.99 34.505 1.99 34.505 3 34 C6.3 34 9.6 34 13 34 C13.33 27.4 13.66 20.8 14 14 C14.66 14 15.32 14 16 14 C16.02887814 17.47914941 16.04675687 20.95826831 16.0625 24.4375 C16.07087891 25.43072266 16.07925781 26.42394531 16.08789062 27.44726562 C16.09272461 28.86362305 16.09272461 28.86362305 16.09765625 30.30859375 C16.10551147 31.62041626 16.10551147 31.62041626 16.11352539 32.95874023 C16 35 16 35 15 36 C10.05 36 5.1 36 0 36 C0 24.12 0 12.24 0 0 Z " fill="#222528" transform="translate(260,150)"/>
<path d="M0 0 C0.66 0.33 1.32 0.66 2 1 C1.13069668 5.41810626 0.25456018 9.58097278 -1.625 13.6875 C-4.90186637 22.06357169 -3.66822832 31.7884629 -0.55859375 40.01171875 C0 42 0 42 -1 45 C-1.33 43.35 -1.66 41.7 -2 40 C-2.66 40 -3.32 40 -4 40 C-5.68187391 34.87396996 -6.35212118 30.22512506 -6.3125 24.8125 C-6.31121094 24.07652588 -6.30992188 23.34055176 -6.30859375 22.58227539 C-6.19609605 16.11295474 -4.99416742 10.16055292 -3 4 C-2.34 4 -1.68 4 -1 4 C-0.67 2.68 -0.34 1.36 0 0 Z " fill="#EAC74A" transform="translate(63,118)"/>
<path d="M0 0 C1.958964 0.30852185 3.91715713 0.6219418 5.875 0.9375 C6.96554688 1.11152344 8.05609375 1.28554688 9.1796875 1.46484375 C12 2 12 2 14 3 C13.67 5.97 13.34 8.94 13 12 C11.35 12.33 9.7 12.66 8 13 C4.15383526 8.91193811 1.36410449 5.59282842 0 0 Z " fill="#25844C" transform="translate(11,38)"/>
<path d="M0 0 C0.33 0.99 0.66 1.98 1 3 C0.01 3.33 -0.98 3.66 -2 4 C-4.29772224 7.31981248 -5.83143859 10.89231076 -6.4375 14.875 C-7.54374927 21.02082928 -10.40710513 27.01245441 -15.1875 31.125 C-18 33 -18 33 -20 33 C-19 30 -19 30 -17.5 28.6875 C-15.39495139 26.31932032 -15.34279827 24.08518447 -15 21 C-14.01 21 -13.02 21 -12 21 C-12 20.34 -12 19.68 -12 19 C-11.34 19 -10.68 19 -10 19 C-9.8453125 17.7315625 -9.8453125 17.7315625 -9.6875 16.4375 C-8.3603713 9.80185652 -6.04409111 5.51313415 -1 1 C-0.67 0.67 -0.34 0.34 0 0 Z " fill="#E5C644" transform="translate(135,183)"/>
<path d="M0 0 C-2.78855085 2.78855085 -5.27179673 2.83092761 -9.125 3.5625 C-9.80715576 3.69543457 -10.48931152 3.82836914 -11.19213867 3.96533203 C-14.56440649 4.60832022 -17.88953693 5.12798205 -21.3125 5.375 C-25.74131109 6.12564595 -29.00528199 7.85744904 -32.8984375 10.0390625 C-33.59195313 10.35617188 -34.28546875 10.67328125 -35 11 C-35.66 10.67 -36.32 10.34 -37 10 C-36.34 8.68 -35.68 7.36 -35 6 C-34.34 6 -33.68 6 -33 6 C-32.67 5.01 -32.34 4.02 -32 3 C-31.34926514 2.94465088 -30.69853027 2.88930176 -30.02807617 2.83227539 C-27.08087901 2.57946307 -24.1341994 2.32104674 -21.1875 2.0625 C-20.16333984 1.97548828 -19.13917969 1.88847656 -18.08398438 1.79882812 C-16.60961914 1.66831055 -16.60961914 1.66831055 -15.10546875 1.53515625 C-13.74651489 1.41732788 -13.74651489 1.41732788 -12.36010742 1.29711914 C-1.78862852 -0.03374771 -1.78862852 -0.03374771 0 0 Z " fill="#C8C355" transform="translate(96,92)"/>
<path d="M0 0 C0.33 0 0.66 0 1 0 C1.91582005 6.99221343 2.15203763 13.82719114 2.125 20.875 C2.12886719 21.90625 2.13273438 22.9375 2.13671875 24 C2.13542969 24.98742187 2.13414062 25.97484375 2.1328125 26.9921875 C2.13168457 27.88276855 2.13055664 28.77334961 2.12939453 29.69091797 C2 32 2 32 1 35 C-0.65 35 -2.3 35 -4 35 C-2.02 34.505 -2.02 34.505 0 34 C-0.33 33.34 -0.66 32.68 -1 32 C-1.09772811 29.77253661 -1.13077394 27.5421053 -1.1328125 25.3125 C-1.13376923 24.65419189 -1.13472595 23.99588379 -1.13571167 23.31762695 C-1.13639225 21.92561752 -1.13454646 20.5336049 -1.13037109 19.14160156 C-1.12502104 17.00839117 -1.13032012 14.87539133 -1.13671875 12.7421875 C-1.13605795 11.39062453 -1.13477674 10.0390617 -1.1328125 8.6875 C-1.13112061 6.83705078 -1.13112061 6.83705078 -1.12939453 4.94921875 C-1 2 -1 2 0 0 Z " fill="#293033" transform="translate(242,151)"/>
<path d="M0 0 C1.20076172 0.25136719 1.20076172 0.25136719 2.42578125 0.5078125 C7.50901296 1.20779851 12.5125187 0.97336062 17.63085938 0.78515625 C18.40623047 0.77097656 19.18160156 0.75679687 19.98046875 0.7421875 C20.68067139 0.7201123 21.38087402 0.69803711 22.10229492 0.67529297 C24.58474443 1.10005276 25.36068381 2.14045158 27 4 C32.6474287 7.90975833 38.41531361 7.28768047 45 7 C44.67 7.66 44.34 8.32 44 9 C38.55518355 10.81493882 32.99854153 10.74020057 27.625 8.75 C25 7 25 7 23.33203125 4.8984375 C20.04927483 2.22604283 17.08338207 2.63308731 13.0625 2.875 C8.28307978 3.11156159 4.38210407 3.2124909 0 1 C0 0.67 0 0.34 0 0 Z " fill="#D3BD5E" transform="translate(70,209)"/>
<path d="M0 0 C0.33 0 0.66 0 1 0 C1.04898438 0.57331055 1.09796875 1.14662109 1.1484375 1.73730469 C2.17725648 12.79267413 3.06584704 21.74720523 10.16015625 30.625 C12.04286015 33.0553269 13.14219219 35.05340593 14 38 C13.67 38.99 13.34 39.98 13 41 C9.46505839 36.96006673 7.25045856 32.81372217 5 28 C4.63519531 27.28585938 4.27039062 26.57171875 3.89453125 25.8359375 C1.44222141 20.82508056 0.49729146 16.54787942 0.2734375 10.96875 C0.18320312 10.3190625 0.09296875 9.669375 0 9 C-0.66 8.67 -1.32 8.34 -2 8 C-1.34 8 -0.68 8 0 8 C0 5.36 0 2.72 0 0 Z " fill="#E4C644" transform="translate(39,145)"/>
<path d="M0 0 C0.33 1.32 0.66 2.64 1 4 C-0.98 4.33 -2.96 4.66 -5 5 C-4.10232344 8.1315587 -4.10232344 8.1315587 -2 11 C-1.67 10.34 -1.34 9.68 -1 9 C-1 9.99 -1 10.98 -1 12 C-0.01 12.33 0.98 12.66 2 13 C1.67 13.66 1.34 14.32 1 15 C-2.16015625 15.4140625 -2.16015625 15.4140625 -6.0625 15.625 C-7.35285156 15.69976562 -8.64320313 15.77453125 -9.97265625 15.8515625 C-10.97167969 15.90054688 -11.97070312 15.94953125 -13 16 C-12.03320312 15.37158203 -12.03320312 15.37158203 -11.046875 14.73046875 C-8.61009251 13.03285212 -8.61009251 13.03285212 -8.25 9.3125 C-8.1675 8.219375 -8.085 7.12625 -8 6 C-8.33 6.33 -8.66 6.66 -9 7 C-11.69082872 6.82364548 -14.32851446 6.38164079 -17 6 C-17 5.67 -17 5.34 -17 5 C-11.39 4.01 -5.78 3.02 0 2 C0 1.34 0 0.68 0 0 Z " fill="#151C21" transform="translate(696,149)"/>
<path d="M0 0 C0.33 0 0.66 0 1 0 C1 11.55 1 23.1 1 35 C0.01 35 -0.98 35 -2 35 C-2.33 35.99 -2.66 36.98 -3 38 C-3.99 38 -4.98 38 -6 38 C-6.99 38.495 -6.99 38.495 -8 39 C-9.87862875 38.91255632 -11.75455181 38.75824458 -13.625 38.5625 C-14.62789062 38.46066406 -15.63078125 38.35882813 -16.6640625 38.25390625 C-17.43492187 38.17011719 -18.20578125 38.08632812 -19 38 C-19 37.67 -19 37.34 -19 37 C-18.26394531 36.97421875 -17.52789063 36.9484375 -16.76953125 36.921875 C-10.48487359 36.58298387 -10.48487359 36.58298387 -4.8125 34.0625 C-2.7799618 32.20723426 -2.7799618 32.20723426 -3 30 C-3.33 29.34 -3.66 28.68 -4 28 C-3.01 28.33 -2.02 28.66 -1 29 C-0.67 19.43 -0.34 9.86 0 0 Z " fill="#20242A" transform="translate(571,105)"/>
<path d="M0 0 C1.5778125 0.4021875 1.5778125 0.4021875 3.1875 0.8125 C2.8575 1.8025 2.5275 2.7925 2.1875 3.8125 C1.5275 3.8125 0.8675 3.8125 0.1875 3.8125 C-0.4725 4.4725 -1.1325 5.1325 -1.8125 5.8125 C-3.47916667 5.8125 -5.14583333 5.8125 -6.8125 5.8125 C-6.1170656 8.81634054 -6.1170656 8.81634054 -4.8125 11.8125 C-1.72813503 13.35468248 1.78985904 12.88971911 5.1875 12.8125 C5.1875 13.4725 5.1875 14.1325 5.1875 14.8125 C2.04878812 16.38185594 -0.35105822 16.16451103 -3.8125 15.8125 C-7.19371991 13.36651113 -8.58186783 11.91953441 -9.4375 7.8125 C-8.27704079 2.2422958 -5.72852065 -0.28173052 0 0 Z " fill="#080B0E" transform="translate(652.8125,171.1875)"/>
<path d="M0 0 C1 2 1 2 0.44140625 4.1640625 C0.15136719 4.97617188 -0.13867188 5.78828125 -0.4375 6.625 C-0.86869141 7.85089844 -0.86869141 7.85089844 -1.30859375 9.1015625 C-1.53675781 9.72804687 -1.76492187 10.35453125 -2 11 C-2.66 11 -3.32 11 -4 11 C-4.2475 11.66 -4.495 12.32 -4.75 13 C-6.31817045 16.76360907 -8.14505046 20.3711424 -10 24 C-10.66 24 -11.32 24 -12 24 C-12.2475 24.515625 -12.495 25.03125 -12.75 25.5625 C-14.39581616 28.77184151 -16.1976096 31.87585664 -18 35 C-19 32 -19 32 -18.00390625 29.73828125 C-17.52824219 28.93777344 -17.05257812 28.13726562 -16.5625 27.3125 C-15.85287109 26.10013672 -15.85287109 26.10013672 -15.12890625 24.86328125 C-14.75636719 24.24839844 -14.38382813 23.63351563 -14 23 C-13.01 23 -12.02 23 -11 23 C-11.0825 22.0925 -11.165 21.185 -11.25 20.25 C-10.94030033 16.22390429 -9.85443236 15.68652458 -7 13 C-6.649375 11.948125 -6.29875 10.89625 -5.9375 9.8125 C-5.628125 8.884375 -5.31875 7.95625 -5 7 C-4.01 6.67 -3.02 6.34 -2 6 C-0.77479736 2.99152582 -0.77479736 2.99152582 0 0 Z " fill="#D2BC5B" transform="translate(147,163)"/>
<path d="M0 0 C0.33 0 0.66 0 1 0 C1.12375 0.7528125 1.2475 1.505625 1.375 2.28125 C2.72448223 9.23108348 4.74928733 15.2294329 7.875 21.5625 C8.20242187 22.24054688 8.52984375 22.91859375 8.8671875 23.6171875 C11.0167748 27.80720337 13.19109913 30.13103757 17 33 C18.6171875 35.2890625 18.6171875 35.2890625 19.875 37.625 C20.30554688 38.40101563 20.73609375 39.17703125 21.1796875 39.9765625 C21.58574219 40.97816406 21.58574219 40.97816406 22 42 C21.67 42.66 21.34 43.32 21 44 C20.49210937 43.29875 19.98421875 42.5975 19.4609375 41.875 C18.77257812 40.92625 18.08421875 39.9775 17.375 39 C16.28058594 37.48986328 16.28058594 37.48986328 15.1640625 35.94921875 C13.39496715 33.53826751 11.58653647 31.17174301 9.75 28.8125 C3.51503164 20.48231192 -0.68628315 10.52300828 0 0 Z " fill="#D7C06C" transform="translate(38,154)"/>
<path d="M0 0 C5.4852239 0.93010318 7.88607653 4.65426343 11 9 C12.54609878 11.47529159 13.97800106 14.00049245 15.375 16.5625 C15.72079102 17.18721191 16.06658203 17.81192383 16.42285156 18.45556641 C18.63433161 22.67375982 19.57247518 26.25447447 20 31 C19.34 31 18.68 31 18 31 C17.67 29.68 17.34 28.36 17 27 C16.67 27 16.34 27 16 27 C15.74734375 25.9790625 15.4946875 24.958125 15.234375 23.90625 C14.12835963 20.04877884 12.38493695 16.90927916 10.25 13.5 C9.89873047 12.93901611 9.54746094 12.37803223 9.18554688 11.80004883 C6.44965076 7.51186682 3.45884524 3.71825863 0 0 Z " fill="#205A38" transform="translate(76,57)"/>
<path d="M0 0 C6.93 0 13.86 0 21 0 C21 0.33 21 0.66 21 1 C14.4 1 7.8 1 1 1 C1 3.31 1 5.62 1 8 C7.27 8 13.54 8 20 8 C20 6.02 20 4.04 20 2 C20.33 2 20.66 2 21 2 C21 4.31 21 6.62 21 9 C13.61840342 10.69804788 7.50613879 11.0878462 0 10 C0 6.7 0 3.4 0 0 Z " fill="#030509" transform="translate(164,127)"/>
<path d="M0 0 C12.26968353 0.75706558 20.8757256 3.97460047 31 11 C30.01 11.33 29.02 11.66 28 12 C26.30859375 11.07421875 26.30859375 11.07421875 24.4375 9.6875 C20.4499109 7.01433842 16.91520213 6.13074316 12.19921875 5.45703125 C10 5 10 5 7 3 C4.67612053 2.60612212 2.34206251 2.26513915 0 2 C0 1.34 0 0.68 0 0 Z " fill="#D8C164" transform="translate(96,91)"/>
<path d="M0 0 C4.77003402 -0.38160272 8.09465992 -0.4609004 12.4375 1.75 C14.78000464 3.80683334 15.96521967 5.10261508 17 8 C16.01 8 15.02 8 14 8 C13.01 9.485 13.01 9.485 12 11 C11.34 10.01 10.68 9.02 10 8 C10.33 7.34 10.66 6.68 11 6 C10.01 6.33 9.02 6.66 8 7 C5.875 6.25 5.875 6.25 4 5 C3.67 4.01 3.34 3.02 3 2 C2.01 1.34 1.02 0.68 0 0 Z " fill="#0C141B" transform="translate(222,129)"/>
<path d="M0 0 C1 3 1 3 -0.1875 5.625 C-2 8 -2 8 -4 8.75 C-4.66 8.8325 -5.32 8.915 -6 9 C-6.99 9.33 -7.98 9.66 -9 10 C-9.33 9.34 -9.66 8.68 -10 8 C-11.423125 8.99 -11.423125 8.99 -12.875 10 C-16 12 -16 12 -18 12 C-18 11.34 -18 10.68 -18 10 C-15.98828125 8.37890625 -15.98828125 8.37890625 -13.3125 6.5625 C-12.44238281 5.96566406 -11.57226562 5.36882812 -10.67578125 4.75390625 C-3.42316258 0 -3.42316258 0 0 0 Z " fill="#257F4B" transform="translate(147,61)"/>
<path d="M0 0 C4.29 0 8.58 0 13 0 C13.66 1.32 14.32 2.64 15 4 C14.01 4.33 13.02 4.66 12 5 C10.77479736 8.00847418 10.77479736 8.00847418 10 11 C9.34 11 8.68 11 8 11 C8 10.01 8 9.02 8 8 C7.01 7.67 6.02 7.34 5 7 C5.33 6.01 5.66 5.02 6 4 C5.01 4 4.02 4 3 4 C2.01 3.34 1.02 2.68 0 2 C0 1.34 0 0.68 0 0 Z " fill="#030C11" transform="translate(372,130)"/>
<path d="M0 0 C4.53847198 1.34927545 8.31932246 3.19159348 12.375 5.625 C13.43460938 6.25664063 14.49421875 6.88828125 15.5859375 7.5390625 C16.38257812 8.02117187 17.17921875 8.50328125 18 9 C15 10 15 10 12 9 C11.67 9.66 11.34 10.32 11 11 C9.15878785 9.90902202 7.32718744 8.80180749 5.5 7.6875 C4.4790625 7.07261719 3.458125 6.45773438 2.40625 5.82421875 C1.21515625 4.92123047 1.21515625 4.92123047 0 4 C0 2.66666667 0 1.33333333 0 0 Z " fill="#135935" transform="translate(48,64)"/>
<path d="M0 0 C1.9375 0.8125 1.9375 0.8125 4 2 C4.33 2.99 4.66 3.98 5 5 C5.99 5.33 6.98 5.66 8 6 C5.12868379 9.19457698 2.67741918 11.75167379 -1.69140625 12.3984375 C-4.15251298 12.37743232 -6.55383942 12.26578002 -9 12 C-9 11.67 -9 11.34 -9 11 C-5.17679443 9.57741188 -2.08718695 8.75957724 2 9 C2 8.34 2 7.68 2 7 C2.66 7 3.32 7 4 7 C4 6.34 4 5.68 4 5 C1.36 5 -1.28 5 -4 5 C-2.68 3.35 -1.36 1.7 0 0 Z " fill="#E7C53B" transform="translate(112,205)"/>
<path d="M0 0 C3.1744176 1.09462676 3.98914157 1.98177335 5.75 4.9375 C7 8 7 8 7 11 C6.01 10.67 5.02 10.34 4 10 C3.67 8.02 3.34 6.04 3 4 C1.00016466 4.79117904 1.00016466 4.79117904 -1 6 C-1.33 6.99 -1.66 7.98 -2 9 C-2.66 9 -3.32 9 -4 9 C-4.33 9.99 -4.66 10.98 -5 12 C-5.99 11.67 -6.98 11.34 -8 11 C-7.67 10.01 -7.34 9.02 -7 8 C-6.34 8 -5.68 8 -5 8 C-4.67 6.35 -4.34 4.7 -4 3 C-3.01 2.67 -2.02 2.34 -1 2 C-0.67 1.34 -0.34 0.68 0 0 Z " fill="#EDC636" transform="translate(135,113)"/>
<path d="M0 0 C2.97 0 5.94 0 9 0 C9.33 0.66 9.66 1.32 10 2 C12.01669827 3.13350534 12.01669827 3.13350534 14 4 C13.67 4.66 13.34 5.32 13 6 C14.32 6.66 15.64 7.32 17 8 C11.555 8.495 11.555 8.495 6 9 C6.33 8.34 6.66 7.68 7 7 C7.99 7 8.98 7 10 7 C9.01 6.67 8.02 6.34 7 6 C7 5.01 7 4.02 7 3 C3.71023192 1.90341064 2.28696233 2.20046862 -1 3 C-0.67 2.01 -0.34 1.02 0 0 Z " fill="#040E13" transform="translate(675,131)"/>
<path d="M0 0 C-1.04793843 5.00681695 -2.83098513 7.36336494 -6.98046875 10.09765625 C-10.40807527 11.62914002 -13.29826247 11.32471382 -17 11 C-17 10.01 -17 9.02 -17 8 C-16.30132812 7.97421875 -15.60265625 7.9484375 -14.8828125 7.921875 C-13.97273438 7.86515625 -13.06265625 7.8084375 -12.125 7.75 C-11.22007813 7.70359375 -10.31515625 7.6571875 -9.3828125 7.609375 C-6.84899125 7.25165557 -6.84899125 7.25165557 -5.7734375 5.0625 C-5.51820312 4.381875 -5.26296875 3.70125 -5 3 C-2.42857143 0 -2.42857143 0 0 0 Z " fill="#F5D763" transform="translate(119,189)"/>
<path d="M0 0 C0.33 0.66 0.66 1.32 1 2 C1.66 2 2.32 2 3 2 C2.343621 6.48525648 1.29925791 10.66914029 0 15 C-1.65 15.33 -3.3 15.66 -5 16 C-5 15.01 -5 14.02 -5 13 C-3.66666667 12 -2.33333333 11 -1 10 C-1 9.01 -1 8.02 -1 7 C-0.34 7 0.32 7 1 7 C1 6.34 1 5.68 1 5 C-1.31 6.65 -3.62 8.3 -6 10 C-4.87548273 7.0280615 -3.77706209 4.66559313 -2 2 C-1.34 2 -0.68 2 0 2 C0 1.34 0 0.68 0 0 Z " fill="#ECCA49" transform="translate(118,184)"/>
<path d="M0 0 C2.31 0 4.62 0 7 0 C6.67 1.65 6.34 3.3 6 5 C2.98017116 5.50682442 -0.04062817 6.00563335 -3.0625 6.5 C-3.91005859 6.64308594 -4.75761719 6.78617187 -5.63085938 6.93359375 C-10.49272389 7.72200421 -15.07528186 8.16037074 -20 8 C-13.19018801 4.28271731 -5.62889683 3.71744827 2 4 C1.34 2.68 0.68 1.36 0 0 Z " fill="#52812C" transform="translate(90,87)"/>
<path d="M0 0 C0.33 0 0.66 0 1 0 C1 7.92 1 15.84 1 24 C1.66 24 2.32 24 3 24 C3 24.66 3 25.32 3 26 C-7.55808656 27.33257403 -7.55808656 27.33257403 -12 26 C-12 25.34 -12 24.68 -12 24 C-8.04 24 -4.08 24 0 24 C0 16.08 0 8.16 0 0 Z " fill="#04070C" transform="translate(733,160)"/>
<path d="M0 0 C9.94140191 -1.12970476 19.02299311 4.63086075 27 10 C25.16015625 10.60546875 25.16015625 10.60546875 23 11 C21.61578338 10.08844272 20.23758631 9.16548968 18.90234375 8.18359375 C14.95172816 5.72561321 10.39089478 4.47013662 6 3 C4.783125 2.5875 3.56625 2.175 2.3125 1.75 C1.1678125 1.37875 1.1678125 1.37875 0 1 C0 0.67 0 0.34 0 0 Z " fill="#245D3A" transform="translate(49,45)"/>
<path d="M0 0 C-0.42423244 1.46224799 -0.86490245 2.91973412 -1.3125 4.375 C-1.55613281 5.18710938 -1.79976562 5.99921875 -2.05078125 6.8359375 C-3 9 -3 9 -6 11 C-9 10 -9 10 -10.1875 7.9375 C-10.455625 7.298125 -10.72375 6.65875 -11 6 C-9.54550599 4.9944239 -8.08627557 3.99569565 -6.625 3 C-5.40683594 2.1646875 -5.40683594 2.1646875 -4.1640625 1.3125 C-2 0 -2 0 0 0 Z " fill="#080D13" transform="translate(606,132)"/>
<path d="M0 0 C0 0.33 0 0.66 0 1 C-1.8253125 1.37125 -1.8253125 1.37125 -3.6875 1.75 C-8.98631305 2.91438886 -14.1139628 4.54061498 -19.27734375 6.1953125 C-22 7 -22 7 -24 7 C-24.33 7.66 -24.66 8.32 -25 9 C-25 8.34 -25 7.68 -25 7 C-25.66 6.67 -26.32 6.34 -27 6 C-10.04255319 -1.14893617 -10.04255319 -1.14893617 0 0 Z " fill="#23613E" transform="translate(146,58)"/>
<path d="M0 0 C0.33 0 0.66 0 1 0 C1.19537335 4.88433373 0.62186627 8.42061289 -1 13 C-1.37531446 15.32694964 -1.71917202 17.65976685 -2 20 C-2.66 20 -3.32 20 -4 20 C-4.38882348 13.10198348 -3.79990717 7.36870077 -1 1 C-0.67 0.67 -0.34 0.34 0 0 Z " fill="#F8DD74" transform="translate(58,124)"/>
<path d="M0 0 C2.64 0 5.28 0 8 0 C8.33 0.99 8.66 1.98 9 3 C11.31 3 13.62 3 16 3 C16.33 3.99 16.66 4.98 17 6 C19.97 6 22.94 6 26 6 C26 6.33 26 6.66 26 7 C16.70478094 7.74032718 7.34571272 6.07500886 0 0 Z " fill="#417652" transform="translate(38,89)"/>
<path d="M0 0 C0.33 0 0.66 0 1 0 C2.40027356 25.9701529 2.40027356 25.9701529 1 37 C0.67 37 0.34 37 0 37 C-1.23920695 24.51941569 -1.12790292 12.4874966 0 0 Z " fill="#181B1F" transform="translate(639,147)"/>
<path d="M0 0 C0.33 0.66 0.66 1.32 1 2 C-1.28579115 8.42523382 -4.32650479 13.21766986 -10 17 C-10.66 17 -11.32 17 -12 17 C-11 14 -11 14 -9.5625 12.625 C-7.81388748 11.02503771 -7.81388748 11.02503771 -7.0625 8.4375 C-5.77295696 5.47913656 -4.82138328 5.32252341 -2 4 C-0.73195434 1.9664052 -0.73195434 1.9664052 0 0 Z " fill="#D6C053" transform="translate(127,199)"/>
<path d="M0 0 C-0.25642304 1.91864771 -0.53073436 3.83490994 -0.8125 5.75 C-0.96332031 6.81734375 -1.11414063 7.8846875 -1.26953125 8.984375 C-2.01320407 12.05451094 -2.92765472 13.66080478 -5 16 C-5.66 15.67 -6.32 15.34 -7 15 C-6.505 14.46375 -6.01 13.9275 -5.5 13.375 C-3.5325801 10.25991849 -3.4076261 8.62829011 -4 5 C-6.37500791 2.12359384 -6.37500791 2.12359384 -9 0 C-5.35661658 -2.42892228 -3.85301238 -1.72522943 0 0 Z " fill="#11171C" transform="translate(447,155)"/>
<path d="M0 0 C-5.06211558 4.68245691 -9.97863645 7.74866478 -17 8.1875 C-17.66 8.125625 -18.32 8.06375 -19 8 C-18.01 7.67 -17.02 7.34 -16 7 C-16 6.34 -16 5.68 -16 5 C-12.6828589 3.5783681 -9.55780196 2.60990891 -6 2 C-6 1.34 -6 0.68 -6 0 C-3 -1 -3 -1 0 0 Z " fill="#2F6B46" transform="translate(139,80)"/>
<path d="M0 0 C1.01416992 -0.01160156 1.01416992 -0.01160156 2.04882812 -0.0234375 C7.0590035 -0.0034965 7.0590035 -0.0034965 9.3125 2.25 C4.3625 1.92 -0.5875 1.59 -5.6875 1.25 C-5.6875 2.57 -5.6875 3.89 -5.6875 5.25 C-7.5625 5.875 -7.5625 5.875 -9.6875 6.25 C-10.3475 5.59 -11.0075 4.93 -11.6875 4.25 C-13.79570797 4.5685177 -13.79570797 4.5685177 -15.6875 5.25 C-11.33577943 0.21116565 -6.39068611 -0.02503697 0 0 Z " fill="#1E2226" transform="translate(554.6875,128.75)"/>
<path d="M0 0 C3.71633277 1.64873277 6.72188427 3.96800444 9.9375 6.4375 C13.5262387 9.19143729 17.07281063 11.75072579 21 14 C20.01 14.33 19.02 14.66 18 15 C15.44140625 13.34765625 15.44140625 13.34765625 12.5625 11.0625 C8.34533089 7.5614608 8.34533089 7.5614608 3 7 C3 6.01 3 5.02 3 4 C1.54166642 2.37485532 1.54166642 2.37485532 0 1 C0 0.67 0 0.34 0 0 Z " fill="#176A3D" transform="translate(27,49)"/>
<path d="M0 0 C0.33 0.99 0.66 1.98 1 3 C-0.98 3.99 -0.98 3.99 -3 5 C-3.33 4.34 -3.66 3.68 -4 3 C-8.12973628 3.56739868 -8.12973628 3.56739868 -12 5 C-12 3.68 -12 2.36 -12 1 C-8.00439392 -1.83022097 -4.57262677 -0.76210446 0 0 Z " fill="#121619" transform="translate(733,106)"/>
<path d="M0 0 C1.2077558 3.62326739 0.54311128 4.64146369 -1 8 C-0.34 8 0.32 8 1 8 C1 8.66 1 9.32 1 10 C2.65 10 4.3 10 6 10 C6 10.33 6 10.66 6 11 C2.37 11 -1.26 11 -5 11 C-4.02745 6.13724999 -2.82739031 3.92186398 0 0 Z " fill="#2D2516" transform="translate(142,176)"/>
<path d="M0 0 C1.9375 0.3125 1.9375 0.3125 4 1 C4.33 1.99 4.66 2.98 5 4 C4.34 4 3.68 4 3 4 C2.67 4.99 2.34 5.98 2 7 C0.68 7 -0.64 7 -2 7 C-2.99 8.485 -2.99 8.485 -4 10 C-4.66 10 -5.32 10 -6 10 C-5.49477778 5.62140745 -2.82172778 3.18348776 0 0 Z " fill="#13181E" transform="translate(537,134)"/>
<path d="M0 0 C0.33 0 0.66 0 1 0 C1.12086218 6.43255401 0.82351864 12.61773055 0 19 C-0.66 19 -1.32 19 -2 19 C-2.05428973 16.77110504 -2.09292338 14.54182529 -2.125 12.3125 C-2.15980469 10.45044922 -2.15980469 10.45044922 -2.1953125 8.55078125 C-2.01032021 5.18762143 -1.45767895 3.0014413 0 0 Z " fill="#D4BD5B" transform="translate(39,134)"/>
<path d="M0 0 C0.66 0.99 1.32 1.98 2 3 C4.88595946 3.58481121 4.88595946 3.58481121 8.125 3.6875 C9.22070312 3.75324219 10.31640625 3.81898438 11.4453125 3.88671875 C12.28835938 3.92410156 13.13140625 3.96148437 14 4 C14 4.66 14 5.32 14 6 C9.05 6 4.1 6 -1 6 C-1 1 -1 1 0 0 Z " fill="#080A0C" transform="translate(626,180)"/>
<path d="M0 0 C0.33 0 0.66 0 1 0 C1 10.89 1 21.78 1 33 C0.01 33 -0.98 33 -2 33 C-1.67 32.01 -1.34 31.02 -1 30 C-0.84854901 27.7174301 -0.75113021 25.43112294 -0.68359375 23.14453125 C-0.66281265 22.48289474 -0.64203156 21.82125824 -0.62062073 21.13957214 C-0.55535273 19.03065148 -0.49634656 16.92160865 -0.4375 14.8125 C-0.39429311 13.38084685 -0.35067812 11.94920596 -0.30664062 10.51757812 C-0.19969494 7.01184846 -0.09836359 3.50598214 0 0 Z " fill="#0F1419" transform="translate(710,151)"/>
<path d="M0 0 C15.74487472 -0.738041 15.74487472 -0.738041 23 4 C23 4.66 23 5.32 23 6 C22.401875 5.690625 21.80375 5.38125 21.1875 5.0625 C18.91043228 3.89790296 18.91043228 3.89790296 16 3 C15.67 3.99 15.34 4.98 15 6 C14.34 5.67 13.68 5.34 13 5 C13.33 3.68 13.66 2.36 14 1 C9.38 1 4.76 1 0 1 C0 0.67 0 0.34 0 0 Z " fill="#191D1F" transform="translate(610,129)"/>
<path d="M0 0 C4.95 0 9.9 0 15 0 C14.67 1.32 14.34 2.64 14 4 C12.35 4.33 10.7 4.66 9 5 C9 4.01 9 3.02 9 2 C6.03 1.67 3.06 1.34 0 1 C0 0.67 0 0.34 0 0 Z " fill="#1E2125" transform="translate(572,104)"/>
<path d="M0 0 C2.31 1.98 4.62 3.96 7 6 C6.01 8.31 5.02 10.62 4 13 C2 12 2 12 1 10 C1.66 10 2.32 10 3 10 C2.01 8.68 1.02 7.36 0 6 C0.66 5.34 1.32 4.68 2 4 C1.34 2.68 0.68 1.36 0 0 Z " fill="#0C161E" transform="translate(418,164)"/>
<path d="M0 0 C0.66 0.33 1.32 0.66 2 1 C-0.75 5.875 -0.75 5.875 -3 7 C-3.33 7.66 -3.66 8.32 -4 9 C-5 11 -5 11 -7 12 C-7.66 12.99 -8.32 13.98 -9 15 C-8.24901668 8.61664177 -4.59403362 4.26588836 0 0 Z " fill="#191C1F" transform="translate(476,134)"/>
<path d="M0 0 C0.33 0 0.66 0 1 0 C1 1.65 1 3.3 1 5 C4.96 5 8.92 5 13 5 C13 5.66 13 6.32 13 7 C8.38 7 3.76 7 -1 7 C-0.67 4.69 -0.34 2.38 0 0 Z " fill="#05070B" transform="translate(698,179)"/>
<path d="M0 0 C5.94 0.33 11.88 0.66 18 1 C13.75197923 3.12401038 10.83238937 3.2376107 6.25 3.125 C5.55261719 3.11597656 4.85523438 3.10695313 4.13671875 3.09765625 C2.42433042 3.07419888 0.71211996 3.03833104 -1 3 C-0.67 2.01 -0.34 1.02 0 0 Z " fill="#327A48" transform="translate(56,92)"/>
<path d="M0 0 C3.68069887 1.53643852 5.98775204 3.78150945 8.75 6.625 C9.54921875 7.44226563 10.3484375 8.25953125 11.171875 9.1015625 C12.07679688 10.04128906 12.07679688 10.04128906 13 11 C12.67 11.66 12.34 12.32 12 13 C11.30132812 12.36191406 10.60265625 11.72382812 9.8828125 11.06640625 C8.97273437 10.24011719 8.06265625 9.41382812 7.125 8.5625 C6.22007812 7.73878906 5.31515625 6.91507812 4.3828125 6.06640625 C2.18862073 3.99092058 2.18862073 3.99092058 0 3 C0 2.01 0 1.02 0 0 Z " fill="#D6BB5E" transform="translate(127,103)"/>
<path d="M0 0 C0.66 0.66 1.32 1.32 2 2 C-2.28297531 3.05619003 -6.42985646 3.11702092 -10.8125 3.0625 C-11.50537109 3.05798828 -12.19824219 3.05347656 -12.91210938 3.04882812 C-14.60811068 3.03713156 -16.30406703 3.01919924 -18 3 C-12.28721036 0.05378145 -6.40324245 -0.7422226 0 0 Z " fill="#E5C74A" transform="translate(103,93)"/>
<path d="M0 0 C0.8353125 0.37125 0.8353125 0.37125 1.6875 0.75 C0.6975 1.245 0.6975 1.245 -0.3125 1.75 C0.0175 2.41 0.3475 3.07 0.6875 3.75 C-1.6225 5.4 -3.9325 7.05 -6.3125 8.75 C-6.6425 7.1 -6.9725 5.45 -7.3125 3.75 C-2.88173077 -0.31153846 -2.88173077 -0.31153846 0 0 Z " fill="#11171F" transform="translate(304.3125,140.25)"/>
<path d="M0 0 C1.32 0.33 2.64 0.66 4 1 C3.484375 1.391875 2.96875 1.78375 2.4375 2.1875 C1.7259375 3.0846875 1.7259375 3.0846875 1 4 C1.23043864 6.65466049 1.23043864 6.65466049 2 9 C4.64 9.33 7.28 9.66 10 10 C10 10.33 10 10.66 10 11 C8.56589632 11.24954005 7.12739928 11.47392642 5.6875 11.6875 C4.88699219 11.81511719 4.08648438 11.94273437 3.26171875 12.07421875 C1 12 1 12 -0.84375 10.8125 C-2 9 -2 9 -1.85546875 6.73828125 C-1.63503906 5.93777344 -1.41460938 5.13726562 -1.1875 4.3125 C-0.97480469 3.50425781 -0.76210938 2.69601563 -0.54296875 1.86328125 C-0.36378906 1.24839844 -0.18460938 0.63351563 0 0 Z " fill="#181B1D" transform="translate(679,165)"/>
<path d="M0 0 C0.94875 0.350625 1.8975 0.70125 2.875 1.0625 C1.225 2.7125 -0.425 4.3625 -2.125 6.0625 C-3.445 5.0725 -4.765 4.0825 -6.125 3.0625 C-5.795 2.0725 -5.465 1.0825 -5.125 0.0625 C-3.125 -0.9375 -3.125 -0.9375 0 0 Z " fill="#0E151E" transform="translate(549.125,141.9375)"/>
<path d="M0 0 C4.60853797 0.72008406 8.67237409 2.31295939 13 4 C10 5 10 5 7.5 4.4375 C4.7600266 3.66177482 4.7600266 3.66177482 2 6 C2 5.34 2 4.68 2 4 C1.34 4 0.68 4 0 4 C0 2.68 0 1.36 0 0 Z " fill="#181F24" transform="translate(433,137)"/>
<path d="M0 0 C0.33 0.99 0.66 1.98 1 3 C0.34 3 -0.32 3 -1 3 C-1 4.32 -1 5.64 -1 7 C-3.31 7.66 -5.62 8.32 -8 9 C-7.1875 7.0625 -7.1875 7.0625 -6 5 C-5.01 4.67 -4.02 4.34 -3 4 C-3 3.34 -3 2.68 -3 2 C-2.01 1.34 -1.02 0.68 0 0 Z " fill="#F6D25B" transform="translate(100,201)"/>
<path d="M0 0 C1.99097846 2.98646769 2.94124926 5.59687262 4 9 C4.99 8.67 5.98 8.34 7 8 C7 9.98 7 11.96 7 14 C6.67 13.01 6.34 12.02 6 11 C5.01 11 4.02 11 3 11 C1.35 7.7 -0.3 4.4 -2 1 C-1.34 0.67 -0.68 0.34 0 0 Z " fill="#E8C74D" transform="translate(57,187)"/>
<path d="M0 0 C0.33 0 0.66 0 1 0 C1.02578125 0.71285156 1.0515625 1.42570313 1.078125 2.16015625 C1.45766258 8.56916582 2.34901282 12.7001799 6 18 C2.34683329 16.75023244 1.21934164 16.32901247 -1 13 C-0.9765625 9.86328125 -0.9765625 9.86328125 -0.625 6.3125 C-0.51414062 5.13300781 -0.40328125 3.95351562 -0.2890625 2.73828125 C-0.19367187 1.83464844 -0.09828125 0.93101562 0 0 Z " fill="#1D1E24" transform="translate(543,152)"/>
<path d="M0 0 C7.15406617 -0.74521523 11.30223306 0.65292985 17 5 C16.01 5.33 15.02 5.66 14 6 C12.29493696 5.01630979 10.59222516 4.027442 8.91796875 2.9921875 C5.97271184 1.46857191 3.28418286 1.26809656 0 1 C0 0.67 0 0.34 0 0 Z " fill="#161A1B" transform="translate(688,129)"/>
<path d="M0 0 C1.32 0.66 2.64 1.32 4 2 C4 2.66 4 3.32 4 4 C1.76851178 5.84674887 -0.58808753 7.39205835 -3 9 C-3.33 8.01 -3.66 7.02 -4 6 C-3.34 6 -2.68 6 -2 6 C-1.855625 5.195625 -1.71125 4.39125 -1.5625 3.5625 C-1 1 -1 1 0 0 Z " fill="#256D46" transform="translate(106,77)"/>
<path d="M0 0 C0.33 0 0.66 0 1 0 C1.125 3.375 1.125 3.375 1 7 C0.34 7.66 -0.32 8.32 -1 9 C-3.125 8.625 -3.125 8.625 -5 8 C-4.67 6.68 -4.34 5.36 -4 4 C-3.01 4 -2.02 4 -1 4 C-0.67 2.68 -0.34 1.36 0 0 Z " fill="#08723F" transform="translate(81,68)"/>
<path d="M0 0 C0.33 0.66 0.66 1.32 1 2 C-0.93462002 3.31674138 -2.87279697 4.62825798 -4.8125 5.9375 C-5.89144531 6.66839844 -6.97039062 7.39929688 -8.08203125 8.15234375 C-11 10 -11 10 -14 11 C-14 10.34 -14 9.68 -14 9 C-11.953125 7.34375 -11.953125 7.34375 -9.25 5.5 C-7.92742187 4.58734375 -7.92742187 4.58734375 -6.578125 3.65625 C-4.42518314 2.27314796 -2.31454668 1.08156387 0 0 Z " fill="#378758" transform="translate(143,62)"/>
<path d="M0 0 C0.66 0.33 1.32 0.66 2 1 C2 1.99 2 2.98 2 4 C-1.06246747 5.78409802 -3.22079273 6.22880021 -6.75 6.125 C-7.54921875 6.10695312 -8.3484375 6.08890625 -9.171875 6.0703125 C-9.77515625 6.04710937 -10.3784375 6.02390625 -11 6 C-8 4 -8 4 -4.375 3 C-3.26125 2.67 -2.1475 2.34 -1 2 C-0.67 1.34 -0.34 0.68 0 0 Z " fill="#080A0C" transform="translate(690,181)"/>
<path d="M0 0 C0.33 0 0.66 0 1 0 C1.33 1.65 1.66 3.3 2 5 C2.33 5 2.66 5 3 5 C3 7.97 3 10.94 3 14 C2.01 13.67 1.02 13.34 0 13 C-1.0161692 8.37078475 -0.83796731 4.65537393 0 0 Z " fill="#090B11" transform="translate(466,155)"/>
<path d="M0 0 C4.99923125 1.32332592 8.39786925 4.60768155 11 9 C10.67 9.99 10.34 10.98 10 12 C9.4225 11.030625 8.845 10.06125 8.25 9.0625 C5.802274 5.73087295 5.62595083 5.84605519 2 5 C0.75 2.4375 0.75 2.4375 0 0 Z " fill="#1E2426" transform="translate(385,131)"/>
<path d="M0 0 C1.45792884 -0.05399736 2.91642712 -0.09279177 4.375 -0.125 C5.18710938 -0.14820313 5.99921875 -0.17140625 6.8359375 -0.1953125 C9 0 9 0 11 2 C9.02 2.99 9.02 2.99 7 4 C7.66 4.33 8.32 4.66 9 5 C8.67 5.66 8.34 6.32 8 7 C6.0625 6.1875 6.0625 6.1875 4 5 C3.67 4.01 3.34 3.02 3 2 C2.01 1.34 1.02 0.68 0 0 Z " fill="#1C2226" transform="translate(222,129)"/>
<path d="M0 0 C5.77807024 -0.2358396 10.51324804 0.13216954 16 2 C15.34 2.66 14.68 3.32 14 4 C12.0261702 3.57233688 10.05276152 3.13171174 8.109375 2.58203125 C5.43519197 1.84415482 2.74112812 1.41116922 0 1 C0 0.67 0 0.34 0 0 Z " fill="#04090C" transform="translate(307,130)"/>
<path d="M0 0 C2.31 0 4.62 0 7 0 C7.66 1.98 8.32 3.96 9 6 C7.35 6 5.7 6 4 6 C4 5.34 4 4.68 4 4 C2.68 3.34 1.36 2.68 0 2 C0 1.34 0 0.68 0 0 Z " fill="#070B11" transform="translate(439,121)"/>
<path d="M0 0 C0.99 0 1.98 0 3 0 C2.34 3.3 1.68 6.6 1 10 C0.01 10 -0.98 10 -2 10 C-1.54177532 6.53058454 -1.10868317 3.32604951 0 0 Z " fill="#EDC71E" transform="translate(132,166)"/>
<path d="M0 0 C2.64 0.66 5.28 1.32 8 2 C8 2.33 8 2.66 8 3 C4.37 3.66 0.74 4.32 -3 5 C-3 5.66 -3 6.32 -3 7 C-3.99 6.67 -4.98 6.34 -6 6 C-5.195625 5.38125 -4.39125 4.7625 -3.5625 4.125 C-0.96125481 2.25835959 -0.96125481 2.25835959 0 0 Z " fill="#03090F" transform="translate(490,138)"/>
<path d="M0 0 C0.66 0.33 1.32 0.66 2 1 C0.49860488 5.20390632 -2.17275043 6.89110738 -6 9 C-6.99 8.67 -7.98 8.34 -9 8 C-7.87926138 7.16094435 -6.75325453 6.32892169 -5.625 5.5 C-4.99851562 5.0359375 -4.37203125 4.571875 -3.7265625 4.09375 C-2 3 -2 3 0 3 C0 2.01 0 1.02 0 0 Z " fill="#E9C842" transform="translate(73,109)"/>
<path d="M0 0 C0.33 0.66 0.66 1.32 1 2 C0.34 2 -0.32 2 -1 2 C-2.12516085 3.83284443 -2.12516085 3.83284443 -3 6 C-2.67 6.99 -2.34 7.98 -2 9 C-2.99 9 -3.98 9 -5 9 C-5.33 7.02 -5.66 5.04 -6 3 C-4.02 2.01 -2.04 1.02 0 0 Z " fill="#111416" transform="translate(410,165)"/>
<path d="M0 0 C2.26954631 3.40431947 2.36549949 5.16524202 2.625 9.1875 C2.69976562 10.27417969 2.77453125 11.36085937 2.8515625 12.48046875 C2.92503906 13.72763672 2.92503906 13.72763672 3 15 C2.01 14.67 1.02 14.34 0 14 C0 9.38 0 4.76 0 0 Z " fill="#EBC641" transform="translate(144,129)"/>
<path d="M0 0 C-1.32 0.33 -2.64 0.66 -4 1 C-4 1.66 -4 2.32 -4 3 C-6.31 3 -8.62 3 -11 3 C-11.33 2.01 -11.66 1.02 -12 0 C-10.37585622 -0.19477739 -8.75063577 -0.38059458 -7.125 -0.5625 C-6.22007812 -0.66691406 -5.31515625 -0.77132812 -4.3828125 -0.87890625 C-2 -1 -2 -1 0 0 Z " fill="#131A1D" transform="translate(318,173)"/>
<path d="M0 0 C0.90105469 0.00902344 1.80210937 0.01804688 2.73046875 0.02734375 C3.41753906 0.03894531 4.10460937 0.05054688 4.8125 0.0625 C4.8125 0.3925 4.8125 0.7225 4.8125 1.0625 C1.8425 1.0625 -1.1275 1.0625 -4.1875 1.0625 C-4.1875 1.7225 -4.1875 2.3825 -4.1875 3.0625 C-6.4975 3.3925 -8.8075 3.7225 -11.1875 4.0625 C-7.77628592 0.32640839 -4.93646556 -0.06410994 0 0 Z " fill="#232525" transform="translate(257.1875,128.9375)"/>
<path d="M0 0 C0.99 0 1.98 0 3 0 C3.4125 0.886875 3.825 1.77375 4.25 2.6875 C5.90127288 5.81312366 7.71331259 8.31905614 10 11 C6.8510285 9.63088196 4.9521513 8.1247864 2.75 5.5 C2.22921875 4.8915625 1.7084375 4.283125 1.171875 3.65625 C0 2 0 2 0 0 Z " fill="#D6C36F" transform="translate(60,198)"/>
<path d="M0 0 C-0.33 0.33 -0.66 0.66 -1 1 C-1.19149081 4.63194641 -1.19149081 4.63194641 0 8 C-0.99 7.67 -1.98 7.34 -3 7 C-3.33 5.35 -3.66 3.7 -4 2 C-4.66 2 -5.32 2 -6 2 C-6 1.34 -6 0.68 -6 0 C-3.50907189 -1.24546405 -2.58919267 -0.7767578 0 0 Z " fill="#191B21" transform="translate(610,167)"/>
<path d="M0 0 C0.33 0.66 0.66 1.32 1 2 C2.670625 1.9690625 2.670625 1.9690625 4.375 1.9375 C8 2 8 2 10 3 C9.67 3.66 9.34 4.32 9 5 C6.9375 5.625 6.9375 5.625 5 6 C4.67 5.34 4.34 4.68 4 4 C0.97065509 3.34227572 0.97065509 3.34227572 -2 3 C-1.34 2.67 -0.68 2.34 0 2 C0 1.34 0 0.68 0 0 Z " fill="#03090E" transform="translate(687,128)"/>
<path d="M0 0 C1.37478516 0.01740234 1.37478516 0.01740234 2.77734375 0.03515625 C3.69644531 0.04417969 4.61554688 0.05320313 5.5625 0.0625 C6.27277344 0.07410156 6.98304688 0.08570313 7.71484375 0.09765625 C6.72484375 0.42765625 5.73484375 0.75765625 4.71484375 1.09765625 C4.38484375 2.08765625 4.05484375 3.07765625 3.71484375 4.09765625 C1.65234375 4.78515625 1.65234375 4.78515625 -0.28515625 5.09765625 C-0.61515625 4.10765625 -0.94515625 3.11765625 -1.28515625 2.09765625 C-1.94515625 1.76765625 -2.60515625 1.43765625 -3.28515625 1.09765625 C-2.28515625 0.09765625 -2.28515625 0.09765625 0 0 Z " fill="#111419" transform="translate(220.28515625,129.90234375)"/>
<path d="M0 0 C-0.33 1.65 -0.66 3.3 -1 5 C-2.65 5.33 -4.3 5.66 -6 6 C-6 5.01 -6 4.02 -6 3 C-2.66666667 0 -2.66666667 0 0 0 Z " fill="#E7C640" transform="translate(119,194)"/>
<path d="M0 0 C2.5 1.3125 2.5 1.3125 5 3 C5 3.99 5 4.98 5 6 C2.36 5.67 -0.28 5.34 -3 5 C-2.01 3.35 -1.02 1.7 0 0 Z " fill="#161920" transform="translate(677,182)"/>
<path d="M0 0 C1.5234375 1.8515625 1.5234375 1.8515625 3 4 C2.625 6.375 2.625 6.375 2 9 C2.38333662 12.22111592 2.38333662 12.22111592 3 15 C0.03090402 11.72698081 -0.34354794 9.61934238 -0.1875 5.25 C-0.16042969 4.26515625 -0.13335937 3.2803125 -0.10546875 2.265625 C-0.07066406 1.51796875 -0.03585937 0.7703125 0 0 Z " fill="#030609" transform="translate(282,154)"/>
<path d="M0 0 C0.33 0.66 0.66 1.32 1 2 C1.99 2.33 2.98 2.66 4 3 C3.67 3.33 3.34 3.66 3 4 C4.32 4.66 5.64 5.32 7 6 C6.67 7.32 6.34 8.64 6 10 C4.99106869 8.90398831 3.99311775 7.79786082 3 6.6875 C2.1646875 5.76517578 2.1646875 5.76517578 1.3125 4.82421875 C0 3 0 3 0 0 Z " fill="#1B1F21" transform="translate(408,135)"/>
<path d="M0 0 C3.4873637 2.20866368 4.81424086 4.04746952 6 8 C6 8.99 6 9.98 6 11 C5.01 10.67 4.02 10.34 3 10 C2.67 7.69 2.34 5.38 2 3 C1.34 3 0.68 3 0 3 C0 2.01 0 1.02 0 0 Z " fill="#E6C44A" transform="translate(136,113)"/>
<path d="M0 0 C0.66 0 1.32 0 2 0 C2.33 1.65 2.66 3.3 3 5 C1.35 5.66 -0.3 6.32 -2 7 C-1.125 1.125 -1.125 1.125 0 0 Z " fill="#EFC620" transform="translate(136,117)"/>
<path d="M0 0 C0.33 1.32 0.66 2.64 1 4 C1.66 4 2.32 4 3 4 C3.99 6.31 4.98 8.62 6 11 C3.59071265 10.03628506 2.23992991 9.34789837 0.75 7.1875 C-0.11081611 4.67678635 -0.14647297 2.63651351 0 0 Z " fill="#16181B" transform="translate(718,112)"/>
<path d="M0 0 C2.31 0 4.62 0 7 0 C6.67 1.65 6.34 3.3 6 5 C4.68 5 3.36 5 2 5 C1.34 3.35 0.68 1.7 0 0 Z " fill="#55874F" transform="translate(90,87)"/>
<path d="M0 0 C1 2 1 2 0.44140625 4.1640625 C0.15136719 4.97617188 -0.13867188 5.78828125 -0.4375 6.625 C-0.72496094 7.44226563 -1.01242188 8.25953125 -1.30859375 9.1015625 C-1.53675781 9.72804687 -1.76492187 10.35453125 -2 11 C-2.66 11 -3.32 11 -4 11 C-4.33 11.66 -4.66 12.32 -5 13 C-4.39254603 8.14036821 -2.27241033 4.2594482 0 0 Z " fill="#C0A862" transform="translate(147,163)"/>
<path d="M0 0 C0.33 0 0.66 0 1 0 C1.144375 0.78375 1.28875 1.5675 1.4375 2.375 C1.87798925 4.96421018 1.87798925 4.96421018 3 7 C2.34 7.66 1.68 8.32 1 9 C-0.32 8.67 -1.64 8.34 -3 8 C-2.01 5.36 -1.02 2.72 0 0 Z " fill="#171C20" transform="translate(324,160)"/>
<path d="M0 0 C0.66 0.33 1.32 0.66 2 1 C2 2.32 2 3.64 2 5 C-1.63 4.34 -5.26 3.68 -9 3 C-9 2.67 -9 2.34 -9 2 C-6.03 2 -3.06 2 0 2 C0 1.34 0 0.68 0 0 Z " fill="#12181C" transform="translate(694,137)"/>
<path d="M0 0 C0.33 1.32 0.66 2.64 1 4 C-1.3125 5.125 -1.3125 5.125 -4 6 C-4.99 5.34 -5.98 4.68 -7 4 C-2.25 0 -2.25 0 0 0 Z " fill="#10171F" transform="translate(380,138)"/>
<path d="M0 0 C2.97 0 5.94 0 9 0 C9 0.33 9 0.66 9 1 C7.35 1 5.7 1 4 1 C4 1.66 4 2.32 4 3 C1.69 3.33 -0.62 3.66 -3 4 C-2.34 3.67 -1.68 3.34 -1 3 C-0.67 2.01 -0.34 1.02 0 0 Z " fill="#9AA660" transform="translate(64,95)"/>
<path d="M0 0 C3.68754757 0.49831724 5.60490662 1.10067643 8 4 C5.69 4 3.38 4 1 4 C0.67 2.68 0.34 1.36 0 0 Z " fill="#0A743E" transform="translate(51,62)"/>
<path d="M0 0 C3.3 0.33 6.6 0.66 10 1 C10 1.33 10 1.66 10 2 C7.69 2 5.38 2 3 2 C3 3.65 3 5.3 3 7 C2.01 6.34 1.02 5.68 0 5 C0.66 5 1.32 5 2 5 C1.34 4.34 0.68 3.68 0 3 C0 2.01 0 1.02 0 0 Z " fill="#ECCA49" transform="translate(99,199)"/>
<path d="M0 0 C0.66 0 1.32 0 2 0 C2 1.98 2 3.96 2 6 C0.68 6.33 -0.64 6.66 -2 7 C-1.34 4.69 -0.68 2.38 0 0 Z " fill="#E4C827" transform="translate(139,170)"/>
<path d="M0 0 C3.0916909 2.52956528 3.90931332 5.22454612 5 9 C4.01 9 3.02 9 2 9 C-0.29013653 5.5647952 -0.17842973 4.014669 0 0 Z " fill="#0A0C10" transform="translate(530,167)"/>
<path d="M0 0 C0.33 0.66 0.66 1.32 1 2 C1.99 2.33 2.98 2.66 4 3 C3.01 3.495 3.01 3.495 2 4 C2 4.66 2 5.32 2 6 C1.34 6 0.68 6 0 6 C-0.66 6.99 -1.32 7.98 -2 9 C-1.125 2.25 -1.125 2.25 0 0 Z " fill="#161A1F" transform="translate(530,144)"/>
<path d="M0 0 C0.33 0.99 0.66 1.98 1 3 C-0.8125 5.5 -0.8125 5.5 -3 8 C-3.66 8.99 -4.32 9.98 -5 11 C-4.54663921 6.12637153 -3.2910841 3.60957611 0 0 Z " fill="#070A10" transform="translate(365,141)"/>
<path d="M0 0 C8.57142857 0.85714286 8.57142857 0.85714286 12 3 C9.36 3.33 6.72 3.66 4 4 C3.67 3.34 3.34 2.68 3 2 C2.01 1.34 1.02 0.68 0 0 Z " fill="#316B4B" transform="translate(41,42)"/>
<path d="M0 0 C2.475 0.495 2.475 0.495 5 1 C5 4.3 5 7.6 5 11 C4.67 11 4.34 11 4 11 C3.79503906 10.37351563 3.59007812 9.74703125 3.37890625 9.1015625 C3.10949219 8.28429687 2.84007812 7.46703125 2.5625 6.625 C2.16224609 5.40683594 2.16224609 5.40683594 1.75390625 4.1640625 C1.04820271 1.98968201 1.04820271 1.98968201 0 0 Z " fill="#1B1C23" transform="translate(504,146)"/>
<path d="M0 0 C-2.64738916 1.4606285 -3.89448334 2 -7 2 C-7.33 2.99 -7.66 3.98 -8 5 C-9.32 4.34 -10.64 3.68 -12 3 C-4.71428571 -0.42857143 -4.71428571 -0.42857143 0 0 Z " fill="#1B1F22" transform="translate(430,108)"/>
<path d="M0 0 C2.72226766 2.72226766 3.78896139 5.36688418 5 9 C4.34 9.66 3.68 10.32 3 11 C3 10.01 3 9.02 3 8 C2.34 8 1.68 8 1 8 C0.26919734 6.02253397 -0.39421747 4.01927511 -1 2 C-0.67 1.34 -0.34 0.68 0 0 Z " fill="#226842" transform="translate(90,77)"/>
<path d="M0 0 C1.485 0.99 1.485 0.99 3 2 C3 2.66 3 3.32 3 4 C3.99 4.33 4.98 4.66 6 5 C6 5.66 6 6.32 6 7 C3.13275314 6.42655063 2.1385485 6.1385485 0 4 C0 2.68 0 1.36 0 0 Z " fill="#25754B" transform="translate(25,48)"/>
<path d="M0 0 C-2.96687001 1.64826111 -5.65626525 2.44271087 -9 3 C-9 2.34 -9 1.68 -9 1 C-9.99 0.67 -10.98 0.34 -12 0 C-7.74433453 -1.16063604 -4.3164922 -0.76173392 0 0 Z " fill="#040509" transform="translate(561,185)"/>
<path d="M0 0 C2.49361571 1.20381448 4.68143083 2.45428722 7 4 C7 4.66 7 5.32 7 6 C4.625 5.8125 4.625 5.8125 2 5 C0.6875 2.4375 0.6875 2.4375 0 0 Z " fill="#080B10" transform="translate(408,175)"/>
<path d="M0 0 C1.65 0 3.3 0 5 0 C6.09658936 3.28976808 5.79953138 4.71303767 5 8 C3.24901874 5.37352812 1.61268692 2.71224618 0 0 Z " fill="#12161A" transform="translate(378,144)"/>
<path d="M0 0 C4.10958767 1.45044271 7.43258745 3.51110752 11 6 C10.01 6.33 9.02 6.66 8 7 C5.95703125 5.8203125 5.95703125 5.8203125 3.8125 4.125 C3.09707031 3.57070313 2.38164063 3.01640625 1.64453125 2.4453125 C1.10183594 1.96835937 0.55914062 1.49140625 0 1 C0 0.67 0 0.34 0 0 Z " fill="#055D32" transform="translate(37,57)"/>
<path d="M0 0 C2.475 0.495 2.475 0.495 5 1 C4.34 2.32 3.68 3.64 3 5 C2.01 4.67 1.02 4.34 0 4 C0 2.68 0 1.36 0 0 Z " fill="#1F894E" transform="translate(13,40)"/>
<path d="M0 0 C0.33 0 0.66 0 1 0 C1 2.97 1 5.94 1 9 C0.01 9 -0.98 9 -2 9 C-2 7.02 -2 5.04 -2 3 C-1.34 3 -0.68 3 0 3 C0 2.01 0 1.02 0 0 Z " fill="#13181B" transform="translate(361,149)"/>
<path d="M0 0 C1.32 0.66 2.64 1.32 4 2 C3.34 3.32 2.68 4.64 2 6 C1.34 5.67 0.68 5.34 0 5 C0 4.34 0 3.68 0 3 C-0.66 2.67 -1.32 2.34 -2 2 C-1.34 1.34 -0.68 0.68 0 0 Z " fill="#0C181B" transform="translate(563,131)"/>
<path d="M0 0 C0.66 0 1.32 0 2 0 C1.4409112 3.24271506 0.5867822 4.93057424 -2 7 C-2.66 7 -3.32 7 -4 7 C-4 6.34 -4 5.68 -4 5 C-3.34 5 -2.68 5 -2 5 C-1.34 3.35 -0.68 1.7 0 0 Z " fill="#FADA72" transform="translate(65,112)"/>
<path d="M0 0 C1.65 0 3.3 0 5 0 C5.33 0.99 5.66 1.98 6 3 C2.25 4.125 2.25 4.125 0 3 C0 2.01 0 1.02 0 0 Z " fill="#1D7442" transform="translate(133,76)"/>
<path d="M0 0 C3.25543229 0.34879632 4.01873107 1.02133261 6.25 3.5625 C6.8275 4.366875 7.405 5.17125 8 6 C4.74456771 5.65120368 3.98126893 4.97866739 1.75 2.4375 C1.1725 1.633125 0.595 0.82875 0 0 Z " fill="#255E3A" transform="translate(76,57)"/>
</svg>
